<?xml version="1.0" encoding="utf-8" standalone="no"?>
<!DOCTYPE svg PUBLIC "-//W3C//DTD SVG 1.1//EN"
  "http://www.w3.org/Graphics/SVG/1.1/DTD/svg11.dtd">
<svg xmlns:xlink="http://www.w3.org/1999/xlink" width="334.675682pt" height="341.0275pt" viewBox="0 0 334.675682 341.0275" xmlns="http://www.w3.org/2000/svg" version="1.1">
 <metadata>
  <rdf:RDF xmlns:dc="http://purl.org/dc/elements/1.1/" xmlns:cc="http://creativecommons.org/ns#" xmlns:rdf="http://www.w3.org/1999/02/22-rdf-syntax-ns#">
   <cc:Work>
    <dc:type rdf:resource="http://purl.org/dc/dcmitype/StillImage"/>
    <dc:date>2024-09-25T01:24:18.305345</dc:date>
    <dc:format>image/svg+xml</dc:format>
    <dc:creator>
     <cc:Agent>
      <dc:title>Matplotlib v3.9.2, https://matplotlib.org/</dc:title>
     </cc:Agent>
    </dc:creator>
   </cc:Work>
  </rdf:RDF>
 </metadata>
 <defs>
  <style type="text/css">*{stroke-linejoin: round; stroke-linecap: butt}</style>
 </defs>
 <g id="figure_1">
  <g id="patch_1">
   <path d="M 0 341.0275 
L 334.675682 341.0275 
L 334.675682 0 
L 0 0 
z
" style="fill: #ffffff"/>
  </g>
  <g id="axes_1">
   <g id="patch_2">
    <path d="M 46.945 298.9575 
L 325.945 298.9575 
L 325.945 21.7575 
L 46.945 21.7575 
z
" style="fill: #ffffff"/>
   </g>
   <g id="matplotlib.axis_1">
    <g id="xtick_1">
     <g id="line2d_1">
      <path d="M 59.626818 298.9575 
L 59.626818 21.7575 
" clip-path="url(#p630be95cf6)" style="fill: none; stroke-dasharray: 1.85,0.8; stroke-dashoffset: 0; stroke: #000000; stroke-opacity: 0.5; stroke-width: 0.5"/>
     </g>
     <g id="line2d_2">
      <defs>
       <path id="m31b5393f36" d="M 0 0 
L 0 -6 
" style="stroke: #000000"/>
      </defs>
      <g>
       <use xlink:href="#m31b5393f36" x="59.626818" y="298.9575" style="stroke: #000000"/>
      </g>
     </g>
     <g id="line2d_3">
      <defs>
       <path id="m570c3df4a6" d="M 0 0 
L 0 6 
" style="stroke: #000000"/>
      </defs>
      <g>
       <use xlink:href="#m570c3df4a6" x="59.626818" y="21.7575" style="stroke: #000000"/>
      </g>
     </g>
     <g id="text_1">
      <!-- 0.0 -->
      <g transform="translate(46.904318 314.615) scale(0.16 -0.16)">
       <defs>
        <path id="DejaVuSans-30" d="M 2034 4250 
Q 1547 4250 1301 3770 
Q 1056 3291 1056 2328 
Q 1056 1369 1301 889 
Q 1547 409 2034 409 
Q 2525 409 2770 889 
Q 3016 1369 3016 2328 
Q 3016 3291 2770 3770 
Q 2525 4250 2034 4250 
z
M 2034 4750 
Q 2819 4750 3233 4129 
Q 3647 3509 3647 2328 
Q 3647 1150 3233 529 
Q 2819 -91 2034 -91 
Q 1250 -91 836 529 
Q 422 1150 422 2328 
Q 422 3509 836 4129 
Q 1250 4750 2034 4750 
z
" transform="scale(0.015625)"/>
        <path id="DejaVuSans-2e" d="M 684 794 
L 1344 794 
L 1344 0 
L 684 0 
L 684 794 
z
" transform="scale(0.015625)"/>
       </defs>
       <use xlink:href="#DejaVuSans-30"/>
       <use xlink:href="#DejaVuSans-2e" x="63.623047"/>
       <use xlink:href="#DejaVuSans-30" x="95.410156"/>
      </g>
     </g>
    </g>
    <g id="xtick_2">
     <g id="line2d_4">
      <path d="M 123.035909 298.9575 
L 123.035909 21.7575 
" clip-path="url(#p630be95cf6)" style="fill: none; stroke-dasharray: 1.85,0.8; stroke-dashoffset: 0; stroke: #000000; stroke-opacity: 0.5; stroke-width: 0.5"/>
     </g>
     <g id="line2d_5">
      <g>
       <use xlink:href="#m31b5393f36" x="123.035909" y="298.9575" style="stroke: #000000"/>
      </g>
     </g>
     <g id="line2d_6">
      <g>
       <use xlink:href="#m570c3df4a6" x="123.035909" y="21.7575" style="stroke: #000000"/>
      </g>
     </g>
     <g id="text_2">
      <!-- 2.5 -->
      <g transform="translate(110.313409 314.615) scale(0.16 -0.16)">
       <defs>
        <path id="DejaVuSans-32" d="M 1228 531 
L 3431 531 
L 3431 0 
L 469 0 
L 469 531 
Q 828 903 1448 1529 
Q 2069 2156 2228 2338 
Q 2531 2678 2651 2914 
Q 2772 3150 2772 3378 
Q 2772 3750 2511 3984 
Q 2250 4219 1831 4219 
Q 1534 4219 1204 4116 
Q 875 4013 500 3803 
L 500 4441 
Q 881 4594 1212 4672 
Q 1544 4750 1819 4750 
Q 2544 4750 2975 4387 
Q 3406 4025 3406 3419 
Q 3406 3131 3298 2873 
Q 3191 2616 2906 2266 
Q 2828 2175 2409 1742 
Q 1991 1309 1228 531 
z
" transform="scale(0.015625)"/>
        <path id="DejaVuSans-35" d="M 691 4666 
L 3169 4666 
L 3169 4134 
L 1269 4134 
L 1269 2991 
Q 1406 3038 1543 3061 
Q 1681 3084 1819 3084 
Q 2600 3084 3056 2656 
Q 3513 2228 3513 1497 
Q 3513 744 3044 326 
Q 2575 -91 1722 -91 
Q 1428 -91 1123 -41 
Q 819 9 494 109 
L 494 744 
Q 775 591 1075 516 
Q 1375 441 1709 441 
Q 2250 441 2565 725 
Q 2881 1009 2881 1497 
Q 2881 1984 2565 2268 
Q 2250 2553 1709 2553 
Q 1456 2553 1204 2497 
Q 953 2441 691 2322 
L 691 4666 
z
" transform="scale(0.015625)"/>
       </defs>
       <use xlink:href="#DejaVuSans-32"/>
       <use xlink:href="#DejaVuSans-2e" x="63.623047"/>
       <use xlink:href="#DejaVuSans-35" x="95.410156"/>
      </g>
     </g>
    </g>
    <g id="xtick_3">
     <g id="line2d_7">
      <path d="M 186.445 298.9575 
L 186.445 21.7575 
" clip-path="url(#p630be95cf6)" style="fill: none; stroke-dasharray: 1.85,0.8; stroke-dashoffset: 0; stroke: #000000; stroke-opacity: 0.5; stroke-width: 0.5"/>
     </g>
     <g id="line2d_8">
      <g>
       <use xlink:href="#m31b5393f36" x="186.445" y="298.9575" style="stroke: #000000"/>
      </g>
     </g>
     <g id="line2d_9">
      <g>
       <use xlink:href="#m570c3df4a6" x="186.445" y="21.7575" style="stroke: #000000"/>
      </g>
     </g>
     <g id="text_3">
      <!-- 5.0 -->
      <g transform="translate(173.7225 314.615) scale(0.16 -0.16)">
       <use xlink:href="#DejaVuSans-35"/>
       <use xlink:href="#DejaVuSans-2e" x="63.623047"/>
       <use xlink:href="#DejaVuSans-30" x="95.410156"/>
      </g>
     </g>
    </g>
    <g id="xtick_4">
     <g id="line2d_10">
      <path d="M 249.854091 298.9575 
L 249.854091 21.7575 
" clip-path="url(#p630be95cf6)" style="fill: none; stroke-dasharray: 1.85,0.8; stroke-dashoffset: 0; stroke: #000000; stroke-opacity: 0.5; stroke-width: 0.5"/>
     </g>
     <g id="line2d_11">
      <g>
       <use xlink:href="#m31b5393f36" x="249.854091" y="298.9575" style="stroke: #000000"/>
      </g>
     </g>
     <g id="line2d_12">
      <g>
       <use xlink:href="#m570c3df4a6" x="249.854091" y="21.7575" style="stroke: #000000"/>
      </g>
     </g>
     <g id="text_4">
      <!-- 7.5 -->
      <g transform="translate(237.131591 314.615) scale(0.16 -0.16)">
       <defs>
        <path id="DejaVuSans-37" d="M 525 4666 
L 3525 4666 
L 3525 4397 
L 1831 0 
L 1172 0 
L 2766 4134 
L 525 4134 
L 525 4666 
z
" transform="scale(0.015625)"/>
       </defs>
       <use xlink:href="#DejaVuSans-37"/>
       <use xlink:href="#DejaVuSans-2e" x="63.623047"/>
       <use xlink:href="#DejaVuSans-35" x="95.410156"/>
      </g>
     </g>
    </g>
    <g id="xtick_5">
     <g id="line2d_13">
      <path d="M 313.263182 298.9575 
L 313.263182 21.7575 
" clip-path="url(#p630be95cf6)" style="fill: none; stroke-dasharray: 1.85,0.8; stroke-dashoffset: 0; stroke: #000000; stroke-opacity: 0.5; stroke-width: 0.5"/>
     </g>
     <g id="line2d_14">
      <g>
       <use xlink:href="#m31b5393f36" x="313.263182" y="298.9575" style="stroke: #000000"/>
      </g>
     </g>
     <g id="line2d_15">
      <g>
       <use xlink:href="#m570c3df4a6" x="313.263182" y="21.7575" style="stroke: #000000"/>
      </g>
     </g>
     <g id="text_5">
      <!-- 10.0 -->
      <g transform="translate(295.450682 314.615) scale(0.16 -0.16)">
       <defs>
        <path id="DejaVuSans-31" d="M 794 531 
L 1825 531 
L 1825 4091 
L 703 3866 
L 703 4441 
L 1819 4666 
L 2450 4666 
L 2450 531 
L 3481 531 
L 3481 0 
L 794 0 
L 794 531 
z
" transform="scale(0.015625)"/>
       </defs>
       <use xlink:href="#DejaVuSans-31"/>
       <use xlink:href="#DejaVuSans-30" x="63.623047"/>
       <use xlink:href="#DejaVuSans-2e" x="127.246094"/>
       <use xlink:href="#DejaVuSans-30" x="159.033203"/>
      </g>
     </g>
    </g>
    <g id="xtick_6">
     <g id="line2d_16">
      <defs>
       <path id="m0956d4a4d3" d="M 0 0 
L 0 -3 
" style="stroke: #000000"/>
      </defs>
      <g>
       <use xlink:href="#m0956d4a4d3" x="46.945" y="298.9575" style="stroke: #000000"/>
      </g>
     </g>
     <g id="line2d_17">
      <defs>
       <path id="mca70cecb15" d="M 0 0 
L 0 3 
" style="stroke: #000000"/>
      </defs>
      <g>
       <use xlink:href="#mca70cecb15" x="46.945" y="21.7575" style="stroke: #000000"/>
      </g>
     </g>
    </g>
    <g id="xtick_7">
     <g id="line2d_18">
      <g>
       <use xlink:href="#m0956d4a4d3" x="72.308636" y="298.9575" style="stroke: #000000"/>
      </g>
     </g>
     <g id="line2d_19">
      <g>
       <use xlink:href="#mca70cecb15" x="72.308636" y="21.7575" style="stroke: #000000"/>
      </g>
     </g>
    </g>
    <g id="xtick_8">
     <g id="line2d_20">
      <g>
       <use xlink:href="#m0956d4a4d3" x="84.990455" y="298.9575" style="stroke: #000000"/>
      </g>
     </g>
     <g id="line2d_21">
      <g>
       <use xlink:href="#mca70cecb15" x="84.990455" y="21.7575" style="stroke: #000000"/>
      </g>
     </g>
    </g>
    <g id="xtick_9">
     <g id="line2d_22">
      <g>
       <use xlink:href="#m0956d4a4d3" x="97.672273" y="298.9575" style="stroke: #000000"/>
      </g>
     </g>
     <g id="line2d_23">
      <g>
       <use xlink:href="#mca70cecb15" x="97.672273" y="21.7575" style="stroke: #000000"/>
      </g>
     </g>
    </g>
    <g id="xtick_10">
     <g id="line2d_24">
      <g>
       <use xlink:href="#m0956d4a4d3" x="110.354091" y="298.9575" style="stroke: #000000"/>
      </g>
     </g>
     <g id="line2d_25">
      <g>
       <use xlink:href="#mca70cecb15" x="110.354091" y="21.7575" style="stroke: #000000"/>
      </g>
     </g>
    </g>
    <g id="xtick_11">
     <g id="line2d_26">
      <g>
       <use xlink:href="#m0956d4a4d3" x="135.717727" y="298.9575" style="stroke: #000000"/>
      </g>
     </g>
     <g id="line2d_27">
      <g>
       <use xlink:href="#mca70cecb15" x="135.717727" y="21.7575" style="stroke: #000000"/>
      </g>
     </g>
    </g>
    <g id="xtick_12">
     <g id="line2d_28">
      <g>
       <use xlink:href="#m0956d4a4d3" x="148.399545" y="298.9575" style="stroke: #000000"/>
      </g>
     </g>
     <g id="line2d_29">
      <g>
       <use xlink:href="#mca70cecb15" x="148.399545" y="21.7575" style="stroke: #000000"/>
      </g>
     </g>
    </g>
    <g id="xtick_13">
     <g id="line2d_30">
      <g>
       <use xlink:href="#m0956d4a4d3" x="161.081364" y="298.9575" style="stroke: #000000"/>
      </g>
     </g>
     <g id="line2d_31">
      <g>
       <use xlink:href="#mca70cecb15" x="161.081364" y="21.7575" style="stroke: #000000"/>
      </g>
     </g>
    </g>
    <g id="xtick_14">
     <g id="line2d_32">
      <g>
       <use xlink:href="#m0956d4a4d3" x="173.763182" y="298.9575" style="stroke: #000000"/>
      </g>
     </g>
     <g id="line2d_33">
      <g>
       <use xlink:href="#mca70cecb15" x="173.763182" y="21.7575" style="stroke: #000000"/>
      </g>
     </g>
    </g>
    <g id="xtick_15">
     <g id="line2d_34">
      <g>
       <use xlink:href="#m0956d4a4d3" x="199.126818" y="298.9575" style="stroke: #000000"/>
      </g>
     </g>
     <g id="line2d_35">
      <g>
       <use xlink:href="#mca70cecb15" x="199.126818" y="21.7575" style="stroke: #000000"/>
      </g>
     </g>
    </g>
    <g id="xtick_16">
     <g id="line2d_36">
      <g>
       <use xlink:href="#m0956d4a4d3" x="211.808636" y="298.9575" style="stroke: #000000"/>
      </g>
     </g>
     <g id="line2d_37">
      <g>
       <use xlink:href="#mca70cecb15" x="211.808636" y="21.7575" style="stroke: #000000"/>
      </g>
     </g>
    </g>
    <g id="xtick_17">
     <g id="line2d_38">
      <g>
       <use xlink:href="#m0956d4a4d3" x="224.490455" y="298.9575" style="stroke: #000000"/>
      </g>
     </g>
     <g id="line2d_39">
      <g>
       <use xlink:href="#mca70cecb15" x="224.490455" y="21.7575" style="stroke: #000000"/>
      </g>
     </g>
    </g>
    <g id="xtick_18">
     <g id="line2d_40">
      <g>
       <use xlink:href="#m0956d4a4d3" x="237.172273" y="298.9575" style="stroke: #000000"/>
      </g>
     </g>
     <g id="line2d_41">
      <g>
       <use xlink:href="#mca70cecb15" x="237.172273" y="21.7575" style="stroke: #000000"/>
      </g>
     </g>
    </g>
    <g id="xtick_19">
     <g id="line2d_42">
      <g>
       <use xlink:href="#m0956d4a4d3" x="262.535909" y="298.9575" style="stroke: #000000"/>
      </g>
     </g>
     <g id="line2d_43">
      <g>
       <use xlink:href="#mca70cecb15" x="262.535909" y="21.7575" style="stroke: #000000"/>
      </g>
     </g>
    </g>
    <g id="xtick_20">
     <g id="line2d_44">
      <g>
       <use xlink:href="#m0956d4a4d3" x="275.217727" y="298.9575" style="stroke: #000000"/>
      </g>
     </g>
     <g id="line2d_45">
      <g>
       <use xlink:href="#mca70cecb15" x="275.217727" y="21.7575" style="stroke: #000000"/>
      </g>
     </g>
    </g>
    <g id="xtick_21">
     <g id="line2d_46">
      <g>
       <use xlink:href="#m0956d4a4d3" x="287.899545" y="298.9575" style="stroke: #000000"/>
      </g>
     </g>
     <g id="line2d_47">
      <g>
       <use xlink:href="#mca70cecb15" x="287.899545" y="21.7575" style="stroke: #000000"/>
      </g>
     </g>
    </g>
    <g id="xtick_22">
     <g id="line2d_48">
      <g>
       <use xlink:href="#m0956d4a4d3" x="300.581364" y="298.9575" style="stroke: #000000"/>
      </g>
     </g>
     <g id="line2d_49">
      <g>
       <use xlink:href="#mca70cecb15" x="300.581364" y="21.7575" style="stroke: #000000"/>
      </g>
     </g>
    </g>
    <g id="xtick_23">
     <g id="line2d_50">
      <g>
       <use xlink:href="#m0956d4a4d3" x="325.945" y="298.9575" style="stroke: #000000"/>
      </g>
     </g>
     <g id="line2d_51">
      <g>
       <use xlink:href="#mca70cecb15" x="325.945" y="21.7575" style="stroke: #000000"/>
      </g>
     </g>
    </g>
    <g id="text_6">
     <!-- X -->
     <g transform="translate(180.965 334.1) scale(0.16 -0.16)">
      <defs>
       <path id="DejaVuSans-58" d="M 403 4666 
L 1081 4666 
L 2241 2931 
L 3406 4666 
L 4084 4666 
L 2584 2425 
L 4184 0 
L 3506 0 
L 2194 1984 
L 872 0 
L 191 0 
L 1856 2491 
L 403 4666 
z
" transform="scale(0.015625)"/>
      </defs>
      <use xlink:href="#DejaVuSans-58"/>
     </g>
    </g>
   </g>
   <g id="matplotlib.axis_2">
    <g id="ytick_1">
     <g id="line2d_52">
      <path d="M 46.945 260.974662 
L 325.945 260.974662 
" clip-path="url(#p630be95cf6)" style="fill: none; stroke-dasharray: 1.85,0.8; stroke-dashoffset: 0; stroke: #000000; stroke-opacity: 0.5; stroke-width: 0.5"/>
     </g>
     <g id="line2d_53">
      <defs>
       <path id="m4e6da65af3" d="M 0 0 
L 6 0 
" style="stroke: #000000"/>
      </defs>
      <g>
       <use xlink:href="#m4e6da65af3" x="46.945" y="260.974662" style="stroke: #000000"/>
      </g>
     </g>
     <g id="line2d_54">
      <defs>
       <path id="mcd73fac7b1" d="M 0 0 
L -6 0 
" style="stroke: #000000"/>
      </defs>
      <g>
       <use xlink:href="#mcd73fac7b1" x="325.945" y="260.974662" style="stroke: #000000"/>
      </g>
     </g>
     <g id="text_7">
      <!-- 0 -->
      <g transform="translate(33.265 267.053412) scale(0.16 -0.16)">
       <use xlink:href="#DejaVuSans-30"/>
      </g>
     </g>
    </g>
    <g id="ytick_2">
     <g id="line2d_55">
      <path d="M 46.945 211.259754 
L 325.945 211.259754 
" clip-path="url(#p630be95cf6)" style="fill: none; stroke-dasharray: 1.85,0.8; stroke-dashoffset: 0; stroke: #000000; stroke-opacity: 0.5; stroke-width: 0.5"/>
     </g>
     <g id="line2d_56">
      <g>
       <use xlink:href="#m4e6da65af3" x="46.945" y="211.259754" style="stroke: #000000"/>
      </g>
     </g>
     <g id="line2d_57">
      <g>
       <use xlink:href="#mcd73fac7b1" x="325.945" y="211.259754" style="stroke: #000000"/>
      </g>
     </g>
     <g id="text_8">
      <!-- 5 -->
      <g transform="translate(33.265 217.338504) scale(0.16 -0.16)">
       <use xlink:href="#DejaVuSans-35"/>
      </g>
     </g>
    </g>
    <g id="ytick_3">
     <g id="line2d_58">
      <path d="M 46.945 161.544845 
L 325.945 161.544845 
" clip-path="url(#p630be95cf6)" style="fill: none; stroke-dasharray: 1.85,0.8; stroke-dashoffset: 0; stroke: #000000; stroke-opacity: 0.5; stroke-width: 0.5"/>
     </g>
     <g id="line2d_59">
      <g>
       <use xlink:href="#m4e6da65af3" x="46.945" y="161.544845" style="stroke: #000000"/>
      </g>
     </g>
     <g id="line2d_60">
      <g>
       <use xlink:href="#mcd73fac7b1" x="325.945" y="161.544845" style="stroke: #000000"/>
      </g>
     </g>
     <g id="text_9">
      <!-- 10 -->
      <g transform="translate(23.085 167.623595) scale(0.16 -0.16)">
       <use xlink:href="#DejaVuSans-31"/>
       <use xlink:href="#DejaVuSans-30" x="63.623047"/>
      </g>
     </g>
    </g>
    <g id="ytick_4">
     <g id="line2d_61">
      <path d="M 46.945 111.829937 
L 325.945 111.829937 
" clip-path="url(#p630be95cf6)" style="fill: none; stroke-dasharray: 1.85,0.8; stroke-dashoffset: 0; stroke: #000000; stroke-opacity: 0.5; stroke-width: 0.5"/>
     </g>
     <g id="line2d_62">
      <g>
       <use xlink:href="#m4e6da65af3" x="46.945" y="111.829937" style="stroke: #000000"/>
      </g>
     </g>
     <g id="line2d_63">
      <g>
       <use xlink:href="#mcd73fac7b1" x="325.945" y="111.829937" style="stroke: #000000"/>
      </g>
     </g>
     <g id="text_10">
      <!-- 15 -->
      <g transform="translate(23.085 117.908687) scale(0.16 -0.16)">
       <use xlink:href="#DejaVuSans-31"/>
       <use xlink:href="#DejaVuSans-35" x="63.623047"/>
      </g>
     </g>
    </g>
    <g id="ytick_5">
     <g id="line2d_64">
      <path d="M 46.945 62.115028 
L 325.945 62.115028 
" clip-path="url(#p630be95cf6)" style="fill: none; stroke-dasharray: 1.85,0.8; stroke-dashoffset: 0; stroke: #000000; stroke-opacity: 0.5; stroke-width: 0.5"/>
     </g>
     <g id="line2d_65">
      <g>
       <use xlink:href="#m4e6da65af3" x="46.945" y="62.115028" style="stroke: #000000"/>
      </g>
     </g>
     <g id="line2d_66">
      <g>
       <use xlink:href="#mcd73fac7b1" x="325.945" y="62.115028" style="stroke: #000000"/>
      </g>
     </g>
     <g id="text_11">
      <!-- 20 -->
      <g transform="translate(23.085 68.193778) scale(0.16 -0.16)">
       <use xlink:href="#DejaVuSans-32"/>
       <use xlink:href="#DejaVuSans-30" x="63.623047"/>
      </g>
     </g>
    </g>
    <g id="ytick_6">
     <g id="line2d_67">
      <defs>
       <path id="m583e0a3a30" d="M 0 0 
L 3 0 
" style="stroke: #000000"/>
      </defs>
      <g>
       <use xlink:href="#m583e0a3a30" x="46.945" y="290.803607" style="stroke: #000000"/>
      </g>
     </g>
     <g id="line2d_68">
      <defs>
       <path id="ma9ddae3256" d="M 0 0 
L -3 0 
" style="stroke: #000000"/>
      </defs>
      <g>
       <use xlink:href="#ma9ddae3256" x="325.945" y="290.803607" style="stroke: #000000"/>
      </g>
     </g>
    </g>
    <g id="ytick_7">
     <g id="line2d_69">
      <g>
       <use xlink:href="#m583e0a3a30" x="46.945" y="280.860625" style="stroke: #000000"/>
      </g>
     </g>
     <g id="line2d_70">
      <g>
       <use xlink:href="#ma9ddae3256" x="325.945" y="280.860625" style="stroke: #000000"/>
      </g>
     </g>
    </g>
    <g id="ytick_8">
     <g id="line2d_71">
      <g>
       <use xlink:href="#m583e0a3a30" x="46.945" y="270.917644" style="stroke: #000000"/>
      </g>
     </g>
     <g id="line2d_72">
      <g>
       <use xlink:href="#ma9ddae3256" x="325.945" y="270.917644" style="stroke: #000000"/>
      </g>
     </g>
    </g>
    <g id="ytick_9">
     <g id="line2d_73">
      <g>
       <use xlink:href="#m583e0a3a30" x="46.945" y="251.03168" style="stroke: #000000"/>
      </g>
     </g>
     <g id="line2d_74">
      <g>
       <use xlink:href="#ma9ddae3256" x="325.945" y="251.03168" style="stroke: #000000"/>
      </g>
     </g>
    </g>
    <g id="ytick_10">
     <g id="line2d_75">
      <g>
       <use xlink:href="#m583e0a3a30" x="46.945" y="241.088699" style="stroke: #000000"/>
      </g>
     </g>
     <g id="line2d_76">
      <g>
       <use xlink:href="#ma9ddae3256" x="325.945" y="241.088699" style="stroke: #000000"/>
      </g>
     </g>
    </g>
    <g id="ytick_11">
     <g id="line2d_77">
      <g>
       <use xlink:href="#m583e0a3a30" x="46.945" y="231.145717" style="stroke: #000000"/>
      </g>
     </g>
     <g id="line2d_78">
      <g>
       <use xlink:href="#ma9ddae3256" x="325.945" y="231.145717" style="stroke: #000000"/>
      </g>
     </g>
    </g>
    <g id="ytick_12">
     <g id="line2d_79">
      <g>
       <use xlink:href="#m583e0a3a30" x="46.945" y="221.202735" style="stroke: #000000"/>
      </g>
     </g>
     <g id="line2d_80">
      <g>
       <use xlink:href="#ma9ddae3256" x="325.945" y="221.202735" style="stroke: #000000"/>
      </g>
     </g>
    </g>
    <g id="ytick_13">
     <g id="line2d_81">
      <g>
       <use xlink:href="#m583e0a3a30" x="46.945" y="201.316772" style="stroke: #000000"/>
      </g>
     </g>
     <g id="line2d_82">
      <g>
       <use xlink:href="#ma9ddae3256" x="325.945" y="201.316772" style="stroke: #000000"/>
      </g>
     </g>
    </g>
    <g id="ytick_14">
     <g id="line2d_83">
      <g>
       <use xlink:href="#m583e0a3a30" x="46.945" y="191.37379" style="stroke: #000000"/>
      </g>
     </g>
     <g id="line2d_84">
      <g>
       <use xlink:href="#ma9ddae3256" x="325.945" y="191.37379" style="stroke: #000000"/>
      </g>
     </g>
    </g>
    <g id="ytick_15">
     <g id="line2d_85">
      <g>
       <use xlink:href="#m583e0a3a30" x="46.945" y="181.430809" style="stroke: #000000"/>
      </g>
     </g>
     <g id="line2d_86">
      <g>
       <use xlink:href="#ma9ddae3256" x="325.945" y="181.430809" style="stroke: #000000"/>
      </g>
     </g>
    </g>
    <g id="ytick_16">
     <g id="line2d_87">
      <g>
       <use xlink:href="#m583e0a3a30" x="46.945" y="171.487827" style="stroke: #000000"/>
      </g>
     </g>
     <g id="line2d_88">
      <g>
       <use xlink:href="#ma9ddae3256" x="325.945" y="171.487827" style="stroke: #000000"/>
      </g>
     </g>
    </g>
    <g id="ytick_17">
     <g id="line2d_89">
      <g>
       <use xlink:href="#m583e0a3a30" x="46.945" y="151.601864" style="stroke: #000000"/>
      </g>
     </g>
     <g id="line2d_90">
      <g>
       <use xlink:href="#ma9ddae3256" x="325.945" y="151.601864" style="stroke: #000000"/>
      </g>
     </g>
    </g>
    <g id="ytick_18">
     <g id="line2d_91">
      <g>
       <use xlink:href="#m583e0a3a30" x="46.945" y="141.658882" style="stroke: #000000"/>
      </g>
     </g>
     <g id="line2d_92">
      <g>
       <use xlink:href="#ma9ddae3256" x="325.945" y="141.658882" style="stroke: #000000"/>
      </g>
     </g>
    </g>
    <g id="ytick_19">
     <g id="line2d_93">
      <g>
       <use xlink:href="#m583e0a3a30" x="46.945" y="131.7159" style="stroke: #000000"/>
      </g>
     </g>
     <g id="line2d_94">
      <g>
       <use xlink:href="#ma9ddae3256" x="325.945" y="131.7159" style="stroke: #000000"/>
      </g>
     </g>
    </g>
    <g id="ytick_20">
     <g id="line2d_95">
      <g>
       <use xlink:href="#m583e0a3a30" x="46.945" y="121.772919" style="stroke: #000000"/>
      </g>
     </g>
     <g id="line2d_96">
      <g>
       <use xlink:href="#ma9ddae3256" x="325.945" y="121.772919" style="stroke: #000000"/>
      </g>
     </g>
    </g>
    <g id="ytick_21">
     <g id="line2d_97">
      <g>
       <use xlink:href="#m583e0a3a30" x="46.945" y="101.886955" style="stroke: #000000"/>
      </g>
     </g>
     <g id="line2d_98">
      <g>
       <use xlink:href="#ma9ddae3256" x="325.945" y="101.886955" style="stroke: #000000"/>
      </g>
     </g>
    </g>
    <g id="ytick_22">
     <g id="line2d_99">
      <g>
       <use xlink:href="#m583e0a3a30" x="46.945" y="91.943973" style="stroke: #000000"/>
      </g>
     </g>
     <g id="line2d_100">
      <g>
       <use xlink:href="#ma9ddae3256" x="325.945" y="91.943973" style="stroke: #000000"/>
      </g>
     </g>
    </g>
    <g id="ytick_23">
     <g id="line2d_101">
      <g>
       <use xlink:href="#m583e0a3a30" x="46.945" y="82.000992" style="stroke: #000000"/>
      </g>
     </g>
     <g id="line2d_102">
      <g>
       <use xlink:href="#ma9ddae3256" x="325.945" y="82.000992" style="stroke: #000000"/>
      </g>
     </g>
    </g>
    <g id="ytick_24">
     <g id="line2d_103">
      <g>
       <use xlink:href="#m583e0a3a30" x="46.945" y="72.05801" style="stroke: #000000"/>
      </g>
     </g>
     <g id="line2d_104">
      <g>
       <use xlink:href="#ma9ddae3256" x="325.945" y="72.05801" style="stroke: #000000"/>
      </g>
     </g>
    </g>
    <g id="ytick_25">
     <g id="line2d_105">
      <g>
       <use xlink:href="#m583e0a3a30" x="46.945" y="52.172047" style="stroke: #000000"/>
      </g>
     </g>
     <g id="line2d_106">
      <g>
       <use xlink:href="#ma9ddae3256" x="325.945" y="52.172047" style="stroke: #000000"/>
      </g>
     </g>
    </g>
    <g id="ytick_26">
     <g id="line2d_107">
      <g>
       <use xlink:href="#m583e0a3a30" x="46.945" y="42.229065" style="stroke: #000000"/>
      </g>
     </g>
     <g id="line2d_108">
      <g>
       <use xlink:href="#ma9ddae3256" x="325.945" y="42.229065" style="stroke: #000000"/>
      </g>
     </g>
    </g>
    <g id="ytick_27">
     <g id="line2d_109">
      <g>
       <use xlink:href="#m583e0a3a30" x="46.945" y="32.286083" style="stroke: #000000"/>
      </g>
     </g>
     <g id="line2d_110">
      <g>
       <use xlink:href="#ma9ddae3256" x="325.945" y="32.286083" style="stroke: #000000"/>
      </g>
     </g>
    </g>
    <g id="ytick_28">
     <g id="line2d_111">
      <g>
       <use xlink:href="#m583e0a3a30" x="46.945" y="22.343102" style="stroke: #000000"/>
      </g>
     </g>
     <g id="line2d_112">
      <g>
       <use xlink:href="#ma9ddae3256" x="325.945" y="22.343102" style="stroke: #000000"/>
      </g>
     </g>
    </g>
    <g id="text_12">
     <!-- Signal -->
     <g transform="translate(15.7575 184.9325) rotate(-90) scale(0.16 -0.16)">
      <defs>
       <path id="DejaVuSans-53" d="M 3425 4513 
L 3425 3897 
Q 3066 4069 2747 4153 
Q 2428 4238 2131 4238 
Q 1616 4238 1336 4038 
Q 1056 3838 1056 3469 
Q 1056 3159 1242 3001 
Q 1428 2844 1947 2747 
L 2328 2669 
Q 3034 2534 3370 2195 
Q 3706 1856 3706 1288 
Q 3706 609 3251 259 
Q 2797 -91 1919 -91 
Q 1588 -91 1214 -16 
Q 841 59 441 206 
L 441 856 
Q 825 641 1194 531 
Q 1563 422 1919 422 
Q 2459 422 2753 634 
Q 3047 847 3047 1241 
Q 3047 1584 2836 1778 
Q 2625 1972 2144 2069 
L 1759 2144 
Q 1053 2284 737 2584 
Q 422 2884 422 3419 
Q 422 4038 858 4394 
Q 1294 4750 2059 4750 
Q 2388 4750 2728 4690 
Q 3069 4631 3425 4513 
z
" transform="scale(0.015625)"/>
       <path id="DejaVuSans-69" d="M 603 3500 
L 1178 3500 
L 1178 0 
L 603 0 
L 603 3500 
z
M 603 4863 
L 1178 4863 
L 1178 4134 
L 603 4134 
L 603 4863 
z
" transform="scale(0.015625)"/>
       <path id="DejaVuSans-67" d="M 2906 1791 
Q 2906 2416 2648 2759 
Q 2391 3103 1925 3103 
Q 1463 3103 1205 2759 
Q 947 2416 947 1791 
Q 947 1169 1205 825 
Q 1463 481 1925 481 
Q 2391 481 2648 825 
Q 2906 1169 2906 1791 
z
M 3481 434 
Q 3481 -459 3084 -895 
Q 2688 -1331 1869 -1331 
Q 1566 -1331 1297 -1286 
Q 1028 -1241 775 -1147 
L 775 -588 
Q 1028 -725 1275 -790 
Q 1522 -856 1778 -856 
Q 2344 -856 2625 -561 
Q 2906 -266 2906 331 
L 2906 616 
Q 2728 306 2450 153 
Q 2172 0 1784 0 
Q 1141 0 747 490 
Q 353 981 353 1791 
Q 353 2603 747 3093 
Q 1141 3584 1784 3584 
Q 2172 3584 2450 3431 
Q 2728 3278 2906 2969 
L 2906 3500 
L 3481 3500 
L 3481 434 
z
" transform="scale(0.015625)"/>
       <path id="DejaVuSans-6e" d="M 3513 2113 
L 3513 0 
L 2938 0 
L 2938 2094 
Q 2938 2591 2744 2837 
Q 2550 3084 2163 3084 
Q 1697 3084 1428 2787 
Q 1159 2491 1159 1978 
L 1159 0 
L 581 0 
L 581 3500 
L 1159 3500 
L 1159 2956 
Q 1366 3272 1645 3428 
Q 1925 3584 2291 3584 
Q 2894 3584 3203 3211 
Q 3513 2838 3513 2113 
z
" transform="scale(0.015625)"/>
       <path id="DejaVuSans-61" d="M 2194 1759 
Q 1497 1759 1228 1600 
Q 959 1441 959 1056 
Q 959 750 1161 570 
Q 1363 391 1709 391 
Q 2188 391 2477 730 
Q 2766 1069 2766 1631 
L 2766 1759 
L 2194 1759 
z
M 3341 1997 
L 3341 0 
L 2766 0 
L 2766 531 
Q 2569 213 2275 61 
Q 1981 -91 1556 -91 
Q 1019 -91 701 211 
Q 384 513 384 1019 
Q 384 1609 779 1909 
Q 1175 2209 1959 2209 
L 2766 2209 
L 2766 2266 
Q 2766 2663 2505 2880 
Q 2244 3097 1772 3097 
Q 1472 3097 1187 3025 
Q 903 2953 641 2809 
L 641 3341 
Q 956 3463 1253 3523 
Q 1550 3584 1831 3584 
Q 2591 3584 2966 3190 
Q 3341 2797 3341 1997 
z
" transform="scale(0.015625)"/>
       <path id="DejaVuSans-6c" d="M 603 4863 
L 1178 4863 
L 1178 0 
L 603 0 
L 603 4863 
z
" transform="scale(0.015625)"/>
      </defs>
      <use xlink:href="#DejaVuSans-53"/>
      <use xlink:href="#DejaVuSans-69" x="63.476562"/>
      <use xlink:href="#DejaVuSans-67" x="91.259766"/>
      <use xlink:href="#DejaVuSans-6e" x="154.736328"/>
      <use xlink:href="#DejaVuSans-61" x="218.115234"/>
      <use xlink:href="#DejaVuSans-6c" x="279.394531"/>
     </g>
    </g>
   </g>
   <g id="line2d_113">
    <path d="M 59.626818 178.961399 
L 59.880708 181.683682 
L 60.388489 172.636222 
L 60.642379 181.018419 
L 60.896269 180.691856 
L 61.15016 171.377516 
L 61.40405 175.141193 
L 61.65794 181.045625 
L 61.91183 175.796651 
L 62.165721 180.607357 
L 62.419611 180.455428 
L 62.673501 176.800705 
L 62.927391 187.405903 
L 63.181282 186.386616 
L 63.435172 180.550326 
L 63.689062 182.760288 
L 63.942952 176.158981 
L 64.196843 182.257673 
L 64.450733 184.812549 
L 64.704623 170.578087 
L 64.958514 179.08534 
L 65.212404 177.750307 
L 65.466294 185.31671 
L 65.974075 178.04911 
L 66.227965 184.54134 
L 66.481855 177.192904 
L 66.735745 182.310683 
L 66.989636 181.06067 
L 67.243526 182.9093 
L 67.497416 171.037746 
L 68.005197 186.22251 
L 68.259087 177.263138 
L 68.512977 187.828998 
L 68.766867 181.146693 
L 69.020758 192.370722 
L 69.274648 189.691602 
L 69.528538 182.58664 
L 69.782428 180.386727 
L 70.290209 185.663366 
L 70.544099 187.121793 
L 70.797989 193.52502 
L 71.05188 190.315552 
L 71.30577 189.601109 
L 71.55966 182.64098 
L 71.81355 186.784075 
L 72.067441 197.863028 
L 72.321331 188.101721 
L 72.575221 192.25052 
L 72.829111 194.332237 
L 73.083002 188.563747 
L 73.336892 187.123048 
L 73.590782 188.268232 
L 73.844672 197.72441 
L 74.352453 193.224979 
L 74.606343 190.68591 
L 74.860233 198.58381 
L 75.114124 197.791452 
L 75.368014 203.035781 
L 75.621904 204.149397 
L 75.875794 194.828725 
L 76.129685 192.789565 
L 76.383575 200.551485 
L 76.637465 195.862593 
L 76.891355 199.708014 
L 77.145246 205.362712 
L 77.653026 195.791847 
L 77.906916 204.248008 
L 78.160807 196.915712 
L 78.414697 218.334852 
L 78.668587 201.832653 
L 79.176368 208.592899 
L 79.430258 207.228725 
L 79.684148 218.133636 
L 79.938038 209.90054 
L 80.191929 207.576938 
L 80.445819 202.536208 
L 80.699709 212.978166 
L 80.9536 214.925365 
L 81.20749 213.890599 
L 81.46138 207.320715 
L 81.969161 215.410532 
L 82.223051 210.653956 
L 82.476941 213.135467 
L 82.730831 209.198114 
L 82.984722 217.882452 
L 83.238612 216.382137 
L 83.492502 217.045654 
L 83.746392 222.697112 
L 84.000283 214.255624 
L 84.254173 214.717755 
L 84.761953 217.700307 
L 85.015844 223.800787 
L 85.269734 219.066146 
L 85.523624 218.869574 
L 85.777514 221.325234 
L 86.285295 215.609662 
L 86.539185 208.351785 
L 86.793075 216.951289 
L 87.046966 216.608727 
L 87.300856 218.308837 
L 87.554746 227.50714 
L 87.808636 218.108743 
L 88.062527 217.666172 
L 88.316417 205.6881 
L 88.570307 218.838775 
L 88.824197 216.311684 
L 89.078088 217.891895 
L 89.331978 223.418182 
L 89.585868 211.795816 
L 89.839758 213.589008 
L 90.093649 213.225375 
L 90.347539 221.490834 
L 90.601429 209.789027 
L 90.855319 223.507094 
L 91.3631 205.143597 
L 91.61699 220.679329 
L 91.87088 218.274576 
L 92.124771 214.651411 
L 92.378661 217.321075 
L 92.632551 222.182407 
L 92.886441 213.772124 
L 93.140332 219.01877 
L 93.394222 210.99294 
L 93.648112 217.513944 
L 93.902002 204.819427 
L 94.155893 215.987457 
L 94.409783 213.250488 
L 94.663673 207.148557 
L 94.917563 216.844042 
L 95.425344 203.25707 
L 95.679234 217.247062 
L 95.933124 207.828017 
L 96.187015 206.935438 
L 96.440905 203.8138 
L 96.694795 213.315556 
L 96.948686 213.189011 
L 97.202576 203.481328 
L 97.456466 204.045578 
L 97.710356 203.717311 
L 97.964247 202.676219 
L 98.218137 207.211254 
L 98.472027 202.104427 
L 98.725917 201.227889 
L 98.979808 205.660019 
L 99.233698 192.255234 
L 99.741478 206.296299 
L 99.995369 196.531534 
L 100.249259 204.064191 
L 100.503149 194.730364 
L 100.757039 192.310615 
L 101.01093 201.580869 
L 101.26482 192.145445 
L 101.51871 194.32108 
L 101.7726 191.729686 
L 102.026491 185.835598 
L 102.280381 195.940588 
L 102.534271 197.929823 
L 102.788161 198.074266 
L 103.042052 197.185301 
L 103.549832 190.41482 
L 103.803722 190.240327 
L 104.057613 187.018924 
L 104.311503 190.592858 
L 104.565393 182.968916 
L 104.819283 191.060471 
L 105.073174 175.783469 
L 105.580954 192.731506 
L 105.834844 193.396402 
L 106.088735 185.290538 
L 106.342625 188.431566 
L 106.596515 183.417681 
L 106.850405 184.276977 
L 107.104296 186.670119 
L 107.612076 193.245445 
L 108.119857 180.931593 
L 108.373747 183.888655 
L 108.627637 190.928077 
L 108.881527 183.674106 
L 109.135418 182.438193 
L 109.389308 188.585381 
L 109.643198 183.283532 
L 109.897088 183.634047 
L 110.150979 189.500698 
L 110.404869 181.954187 
L 110.658759 180.879099 
L 110.912649 178.236492 
L 111.16654 178.355553 
L 111.42043 190.437117 
L 111.67432 188.263879 
L 111.92821 181.074384 
L 112.435991 181.200898 
L 112.689881 164.700761 
L 112.943771 181.129344 
L 113.197662 178.454736 
L 113.451552 179.50967 
L 113.705442 181.185879 
L 113.959333 186.18275 
L 114.213223 181.052482 
L 114.467113 188.897064 
L 114.721003 186.480358 
L 114.974894 187.982577 
L 115.228784 185.447419 
L 115.482674 174.650015 
L 115.736564 195.760982 
L 115.990455 183.40412 
L 116.244345 195.188484 
L 116.752125 182.516966 
L 117.259906 194.112205 
L 117.513796 192.744965 
L 117.767686 186.259511 
L 118.021577 193.732614 
L 118.275467 189.502668 
L 118.529357 190.842631 
L 118.783247 194.811716 
L 119.037138 181.428964 
L 119.291028 189.462938 
L 119.544918 203.220406 
L 119.798808 192.773935 
L 120.052699 197.549328 
L 120.306589 190.58908 
L 120.560479 199.343334 
L 121.06826 194.06913 
L 121.32215 192.874259 
L 121.57604 203.750435 
L 121.82993 200.05643 
L 122.337711 202.875753 
L 122.591601 191.473403 
L 123.099382 207.771489 
L 123.353272 197.568522 
L 123.607162 192.210619 
L 123.861052 198.257109 
L 124.114943 211.571778 
L 124.368833 207.052267 
L 124.622723 198.970807 
L 124.876613 209.408711 
L 125.130504 204.301609 
L 125.384394 203.269967 
L 125.638284 212.337032 
L 125.892174 208.626508 
L 126.146065 225.039573 
L 126.399955 214.606001 
L 126.653845 211.348371 
L 126.907735 216.866652 
L 127.161626 203.10877 
L 127.415516 218.884888 
L 127.669406 214.502279 
L 127.923296 212.192557 
L 128.177187 206.192778 
L 128.431077 220.99886 
L 128.684967 208.566488 
L 129.192748 220.162069 
L 129.446638 213.428563 
L 129.700528 215.16331 
L 129.954419 219.546938 
L 130.208309 216.608372 
L 130.462199 219.2452 
L 130.96998 214.729361 
L 131.22387 210.45244 
L 131.47776 224.786816 
L 131.73165 208.303417 
L 131.985541 228.865823 
L 132.239431 220.146925 
L 132.493321 216.676359 
L 132.747211 218.39017 
L 133.001102 223.045473 
L 133.254992 221.123261 
L 133.508882 222.654235 
L 133.762772 223.223478 
L 134.016663 216.134949 
L 134.270553 218.623893 
L 134.524443 223.858096 
L 134.778333 215.92962 
L 135.032224 218.836793 
L 135.286114 216.259584 
L 135.540004 217.080123 
L 135.793894 224.214452 
L 136.047785 222.733853 
L 136.301675 216.062415 
L 136.555565 216.544502 
L 136.809455 219.456839 
L 137.063346 218.516118 
L 137.317236 212.466437 
L 137.571126 221.450653 
L 137.825016 215.453477 
L 138.078907 218.814656 
L 138.332797 218.500164 
L 138.586687 211.53638 
L 138.840577 212.448912 
L 139.094468 212.034279 
L 139.348358 209.087408 
L 139.602248 214.945041 
L 139.856138 211.10412 
L 140.110029 215.455215 
L 140.363919 211.692947 
L 140.617809 213.317127 
L 140.871699 211.527537 
L 141.12559 208.364905 
L 141.37948 214.68013 
L 141.63337 199.4737 
L 141.88726 214.116387 
L 142.141151 214.366058 
L 142.395041 201.763106 
L 142.648931 202.752408 
L 142.902821 202.729904 
L 143.156712 201.830978 
L 143.410602 204.115782 
L 143.664492 207.594233 
L 143.918382 201.814402 
L 144.172273 204.595124 
L 144.426163 195.398393 
L 144.680053 199.975668 
L 144.933943 202.328334 
L 145.441724 194.077944 
L 145.695614 197.861339 
L 145.949505 198.058474 
L 146.203395 191.656115 
L 146.457285 190.532031 
L 146.711175 193.138635 
L 146.965066 191.815588 
L 147.218956 187.163368 
L 147.472846 194.347813 
L 147.726736 192.966822 
L 148.742297 173.827664 
L 148.996188 175.67808 
L 149.250078 179.510827 
L 149.503968 177.579078 
L 149.757858 181.23339 
L 150.011749 175.102956 
L 150.265639 175.205257 
L 150.519529 170.923638 
L 150.773419 175.397882 
L 151.2812 161.181756 
L 151.53509 168.103395 
L 152.042871 161.663434 
L 152.296761 165.861769 
L 152.550651 161.531337 
L 152.804541 161.36768 
L 153.058432 159.737014 
L 153.312322 162.866285 
L 154.073993 148.269704 
L 154.327883 149.557794 
L 154.581773 142.477696 
L 154.835663 155.866029 
L 155.089554 146.597738 
L 155.343444 148.921482 
L 155.597334 137.86088 
L 155.851224 151.697228 
L 156.105115 150.802377 
L 156.359005 148.574905 
L 156.612895 155.140448 
L 156.866785 146.20172 
L 157.120676 146.389037 
L 157.374566 140.915813 
L 157.628456 139.035046 
L 157.882346 130.500111 
L 158.136237 134.219335 
L 158.390127 140.95346 
L 158.644017 141.717674 
L 158.897907 133.996886 
L 159.151798 142.223257 
L 159.405688 125.798535 
L 159.659578 128.311107 
L 160.167359 141.317361 
L 160.421249 125.42557 
L 160.675139 132.110813 
L 160.929029 124.802329 
L 161.18292 138.32768 
L 161.6907 129.356707 
L 161.94459 128.686868 
L 162.198481 130.727224 
L 162.452371 124.994485 
L 162.706261 133.032138 
L 162.960152 128.098316 
L 163.721822 123.048028 
L 163.975713 131.975139 
L 164.229603 133.842447 
L 164.483493 119.728827 
L 164.991274 129.633182 
L 165.245164 118.16676 
L 165.499054 125.303148 
L 165.752944 120.048972 
L 166.006835 125.643418 
L 166.260725 115.834899 
L 166.514615 117.487475 
L 166.768505 127.619419 
L 167.022396 121.752248 
L 167.276286 123.607594 
L 167.530176 120.278351 
L 167.784066 132.178519 
L 168.037957 124.301869 
L 168.291847 122.813719 
L 168.545737 137.213946 
L 168.799627 134.778946 
L 169.053518 139.491316 
L 169.307408 131.18006 
L 169.815188 123.436402 
L 170.069079 131.113315 
L 170.322969 123.99003 
L 170.576859 139.581002 
L 170.830749 141.848977 
L 171.08464 134.344629 
L 171.33853 132.873419 
L 171.59242 135.685531 
L 171.84631 146.566694 
L 172.100201 137.521513 
L 172.354091 144.377565 
L 172.607981 135.400328 
L 172.861871 137.76678 
L 173.115762 145.14345 
L 173.369652 143.928117 
L 173.623542 147.562189 
L 174.131323 139.451383 
L 174.385213 150.079448 
L 174.639103 143.669208 
L 174.892993 149.823648 
L 175.146884 152.15705 
L 175.400774 149.789743 
L 175.654664 155.460358 
L 175.908554 154.134916 
L 176.162445 158.418364 
L 176.416335 143.787153 
L 176.670225 154.481147 
L 176.924115 159.245959 
L 177.178006 155.822493 
L 177.685786 160.243679 
L 177.939676 157.229732 
L 178.193567 157.659439 
L 178.447457 165.208526 
L 178.701347 166.582057 
L 178.955238 166.236547 
L 179.209128 177.463401 
L 179.463018 174.702046 
L 179.716908 161.522361 
L 179.970799 161.285941 
L 180.224689 171.84476 
L 180.478579 168.878846 
L 180.732469 171.331089 
L 180.98636 158.698915 
L 181.49414 176.873258 
L 182.001921 186.419426 
L 182.255811 178.503457 
L 182.763591 188.713382 
L 183.017482 185.900998 
L 183.271372 189.092908 
L 183.525262 176.342485 
L 184.033043 186.748467 
L 184.286933 180.314269 
L 184.794713 193.82271 
L 185.048604 182.873136 
L 185.302494 188.649583 
L 185.556384 197.347058 
L 185.810274 193.975752 
L 186.318055 201.511757 
L 186.571945 190.79993 
L 186.825835 186.653701 
L 187.079726 203.815316 
L 187.333616 194.753002 
L 187.587506 201.448761 
L 187.841396 201.270413 
L 188.095287 202.400056 
L 188.349177 204.327793 
L 188.603067 200.339431 
L 188.856957 205.230109 
L 189.110848 200.242615 
L 189.618628 203.658929 
L 189.872518 207.377824 
L 190.126409 206.096332 
L 190.380299 199.804365 
L 190.634189 201.367866 
L 190.888079 208.983701 
L 191.39586 200.82024 
L 191.64975 213.021094 
L 191.90364 202.15263 
L 192.157531 208.246672 
L 192.411421 202.180324 
L 192.919201 214.017169 
L 193.173092 213.097975 
L 193.426982 204.69594 
L 193.680872 203.538013 
L 193.934762 209.185186 
L 194.188653 201.340792 
L 194.442543 212.568041 
L 194.696433 204.394801 
L 194.950324 209.811681 
L 195.458104 202.904968 
L 195.711994 207.043217 
L 195.965885 204.269776 
L 196.219775 196.914956 
L 196.473665 204.313304 
L 196.727555 196.786333 
L 196.981446 206.021441 
L 197.489226 192.073593 
L 197.743116 210.899998 
L 198.250897 194.397948 
L 198.504787 197.559971 
L 198.758677 193.960649 
L 199.012568 198.035894 
L 199.266458 193.802778 
L 199.520348 194.180535 
L 199.774238 186.748152 
L 200.028129 190.410571 
L 200.282019 189.093791 
L 200.535909 191.892337 
L 200.789799 191.317769 
L 201.04369 190.070159 
L 201.29758 184.962567 
L 201.55147 187.998926 
L 201.80536 183.427094 
L 202.059251 173.491599 
L 202.567031 183.256865 
L 202.820921 174.550665 
L 203.328702 188.378194 
L 203.582592 182.095745 
L 203.836482 185.208685 
L 204.090373 176.466086 
L 204.344263 173.424776 
L 204.598153 163.967933 
L 204.852043 169.452039 
L 205.105934 170.931558 
L 205.359824 164.474659 
L 205.613714 178.338094 
L 205.867604 164.914072 
L 206.121495 160.986499 
L 206.375385 170.897383 
L 206.629275 156.583427 
L 207.137056 161.769416 
L 207.390946 155.272972 
L 207.644836 145.842933 
L 207.898726 154.940018 
L 208.152617 153.32321 
L 208.406507 155.555466 
L 208.660397 156.213598 
L 208.914287 146.580642 
L 209.168178 153.688769 
L 209.422068 147.805994 
L 209.675958 149.271256 
L 209.929848 143.256761 
L 210.183739 142.728075 
L 210.437629 137.985897 
L 210.691519 144.445794 
L 210.94541 142.028061 
L 211.1993 144.33911 
L 211.960971 132.142133 
L 212.214861 139.327262 
L 212.468751 129.271171 
L 212.722641 125.721713 
L 212.976532 129.288568 
L 213.230422 120.912719 
L 213.484312 133.006509 
L 213.992093 135.889518 
L 214.245983 118.58086 
L 214.753763 124.297922 
L 215.007654 121.662189 
L 215.261544 127.703181 
L 215.515434 109.024374 
L 215.769324 119.63887 
L 216.023215 118.858088 
L 216.277105 114.937661 
L 216.784885 115.791781 
L 217.038776 120.050587 
L 217.546556 105.270763 
L 217.800446 107.229675 
L 218.054337 105.314779 
L 218.308227 115.119613 
L 218.562117 116.86692 
L 218.816007 111.967852 
L 219.069898 110.487444 
L 219.323788 104.77344 
L 219.577678 118.102886 
L 219.831568 101.587281 
L 220.085459 109.506667 
L 220.339349 110.400234 
L 220.847129 115.700463 
L 221.10102 103.019479 
L 221.35491 106.413056 
L 221.6088 112.883406 
L 221.86269 112.628725 
L 222.116581 107.60643 
L 222.370471 97.413206 
L 222.878251 112.810757 
L 223.132142 106.41275 
L 223.386032 106.426121 
L 223.639922 118.382916 
L 223.893812 105.175976 
L 224.147703 106.010126 
L 224.655483 95.65662 
L 224.909373 99.277971 
L 225.417154 110.511232 
L 225.671044 92.317398 
L 225.924934 104.939851 
L 226.432715 105.667451 
L 226.686605 104.751629 
L 227.194386 109.028178 
L 227.448276 109.144807 
L 227.702166 106.858071 
L 227.956057 109.684701 
L 228.209947 110.832926 
L 228.463837 107.08338 
L 228.717727 109.220516 
L 228.971618 100.832522 
L 229.225508 121.861272 
L 229.479398 103.643013 
L 229.733288 103.276346 
L 229.987179 120.194634 
L 230.241069 112.019064 
L 230.494959 112.602992 
L 230.748849 118.206479 
L 231.00274 115.53962 
L 231.25663 117.667887 
L 231.51052 103.918813 
L 231.76441 108.470903 
L 232.018301 107.301657 
L 232.272191 110.543384 
L 232.526081 120.258931 
L 232.779971 117.774171 
L 233.033862 113.259505 
L 233.287752 122.298635 
L 233.541642 113.212359 
L 233.795532 118.489027 
L 234.049423 119.697206 
L 234.303313 114.840372 
L 234.557203 116.708214 
L 234.811093 121.25349 
L 235.064984 114.236838 
L 235.318874 125.915097 
L 235.572764 118.016614 
L 235.826654 118.665526 
L 236.080545 123.684978 
L 236.334435 121.052511 
L 236.588325 129.416758 
L 236.842215 119.12054 
L 237.096106 125.144867 
L 237.349996 127.328795 
L 237.603886 120.011906 
L 237.857776 129.217513 
L 238.111667 133.198094 
L 238.365557 134.405392 
L 238.619447 124.114547 
L 238.873337 133.943076 
L 239.127228 119.292441 
L 239.381118 138.7939 
L 239.635008 120.424632 
L 239.888898 128.211603 
L 240.396679 132.733462 
L 240.650569 128.400708 
L 240.904459 130.917911 
L 241.15835 125.576294 
L 241.41224 130.808305 
L 241.66613 130.927679 
L 241.92002 133.764792 
L 242.427801 130.940168 
L 242.681691 141.202889 
L 242.935581 139.615754 
L 243.189472 129.412345 
L 243.697252 134.354709 
L 243.951143 133.486232 
L 244.205033 131.968449 
L 244.458923 136.478959 
L 244.712813 137.744332 
L 244.966704 132.960988 
L 245.220594 138.838283 
L 245.474484 131.964294 
L 245.728374 142.457736 
L 245.982265 128.856113 
L 246.236155 131.581931 
L 246.490045 132.597158 
L 246.997826 125.406224 
L 247.251716 128.52077 
L 247.505606 142.572931 
L 248.521167 130.07619 
L 248.775057 136.015394 
L 249.028948 131.217007 
L 249.282838 135.619757 
L 249.536728 134.604324 
L 249.790618 138.238332 
L 250.044509 135.497361 
L 250.298399 137.271492 
L 250.552289 135.029237 
L 250.806179 124.547923 
L 251.06007 134.09707 
L 251.31396 115.864323 
L 251.56785 126.05607 
L 251.82174 127.130844 
L 252.075631 131.842383 
L 252.329521 123.60336 
L 252.583411 129.441604 
L 252.837301 125.453588 
L 253.091192 112.798971 
L 253.345082 125.45661 
L 253.598972 118.704975 
L 253.852862 127.341329 
L 254.106753 123.434265 
L 254.360643 113.860066 
L 254.614533 125.172792 
L 254.868423 112.427039 
L 255.376204 122.968333 
L 255.630094 116.381827 
L 255.883984 114.036439 
L 256.137875 115.118256 
L 256.391765 125.347083 
L 256.899545 117.415181 
L 257.153436 115.868708 
L 257.407326 111.722562 
L 257.661216 113.230536 
L 257.915106 120.055197 
L 258.168997 110.826428 
L 258.422887 108.979199 
L 258.676777 108.528625 
L 258.930667 105.234829 
L 259.184558 105.758438 
L 259.438448 106.918518 
L 259.692338 108.848555 
L 259.946229 116.057571 
L 260.200119 104.967303 
L 260.454009 105.37693 
L 260.707899 104.369511 
L 260.96179 111.381765 
L 261.21568 109.728815 
L 261.46957 98.444337 
L 261.72346 103.20886 
L 261.977351 98.963292 
L 262.231241 101.557357 
L 262.485131 100.905199 
L 262.739021 95.752252 
L 262.992912 102.355598 
L 263.246802 98.695329 
L 263.500692 100.864993 
L 263.754582 100.131535 
L 264.008473 98.924707 
L 264.262363 95.71164 
L 264.516253 98.636988 
L 264.770143 89.46793 
L 265.024034 99.626039 
L 265.277924 95.58918 
L 265.531814 96.342411 
L 265.785704 86.473732 
L 266.039595 92.216635 
L 266.293485 87.606197 
L 266.547375 99.679802 
L 266.801265 90.541587 
L 267.055156 87.038185 
L 267.309046 90.660867 
L 267.562936 85.399413 
L 267.816826 92.912466 
L 268.070717 82.996659 
L 268.324607 78.255089 
L 268.578497 91.18733 
L 268.832387 91.316579 
L 269.086278 81.61361 
L 269.340168 80.742829 
L 269.594058 90.971003 
L 270.101839 89.383123 
L 270.355729 94.501051 
L 270.609619 92.238925 
L 270.863509 92.538552 
L 271.1174 91.258123 
L 271.37129 87.527952 
L 271.62518 86.12555 
L 271.87907 79.535988 
L 272.132961 92.181795 
L 272.386851 82.318928 
L 272.640741 88.290009 
L 272.894631 87.505346 
L 273.148522 83.957299 
L 273.402412 92.965774 
L 273.656302 85.574153 
L 273.910192 86.757829 
L 274.164083 85.265869 
L 274.417973 86.423686 
L 274.671863 75.820177 
L 274.925753 91.380507 
L 275.179644 91.050758 
L 275.433534 91.727063 
L 275.687424 91.625842 
L 275.941314 92.284815 
L 276.195205 83.472836 
L 276.449095 82.605783 
L 276.702985 92.80445 
L 276.956876 94.419186 
L 277.210766 88.266161 
L 277.464656 93.697875 
L 277.718546 88.162151 
L 277.972437 90.669254 
L 278.226327 99.595447 
L 278.480217 84.760391 
L 278.734107 83.930925 
L 278.987998 96.321796 
L 279.241888 95.629301 
L 279.495778 92.716918 
L 279.749668 92.920716 
L 280.003559 91.763394 
L 280.257449 85.505382 
L 280.511339 96.84778 
L 281.01912 103.782456 
L 281.5269 98.068003 
L 281.78079 89.476937 
L 282.034681 101.47032 
L 282.288571 98.285417 
L 282.542461 99.982375 
L 283.050242 88.34614 
L 283.304132 104.051812 
L 283.558022 104.348605 
L 283.811912 97.225271 
L 284.065803 99.524695 
L 284.319693 94.228953 
L 284.827473 106.173561 
L 285.081364 101.931815 
L 285.335254 99.83104 
L 285.843034 103.748908 
L 286.096925 101.419568 
L 286.350815 101.351998 
L 286.604705 100.726537 
L 287.112486 109.26203 
L 287.366376 108.100907 
L 287.620266 103.218611 
L 287.874156 113.651311 
L 288.128047 108.116255 
L 288.381937 112.24914 
L 288.635827 110.480012 
L 288.889717 104.580427 
L 289.143608 110.282947 
L 289.397498 111.281706 
L 289.651388 118.534857 
L 289.905278 108.307746 
L 290.159169 109.03315 
L 290.413059 101.692467 
L 290.666949 114.162005 
L 290.920839 111.706589 
L 291.17473 111.699356 
L 291.42862 105.218306 
L 291.68251 113.633677 
L 292.190291 110.268181 
L 292.444181 112.39283 
L 292.698071 115.546338 
L 293.205852 107.928843 
L 293.459742 118.302134 
L 293.713632 112.444866 
L 293.967523 116.468032 
L 294.221413 106.901761 
L 294.475303 120.244777 
L 295.236974 104.217805 
L 295.490864 112.050011 
L 295.744754 114.178452 
L 295.998645 101.733953 
L 296.252535 117.92529 
L 296.506425 121.270726 
L 296.760315 107.737161 
L 297.014206 111.978344 
L 297.268096 114.089513 
L 297.521986 104.993345 
L 297.775876 106.777778 
L 298.283657 113.222207 
L 298.537547 101.912424 
L 298.791437 102.382842 
L 299.045328 105.446816 
L 299.299218 95.084841 
L 299.553108 108.870282 
L 299.806998 110.393086 
L 300.314779 101.4746 
L 300.568669 99.219223 
L 300.822559 100.784062 
L 301.07645 96.965406 
L 301.33034 104.044034 
L 301.58423 89.726603 
L 301.83812 96.371222 
L 302.092011 89.443459 
L 302.345901 92.3067 
L 302.853681 89.136439 
L 303.107572 88.690285 
L 303.361462 86.647054 
L 303.615352 82.140568 
L 303.869242 86.657924 
L 304.123133 82.977611 
L 304.377023 85.797646 
L 304.630913 77.023365 
L 304.884803 86.359859 
L 305.138694 72.841698 
L 305.646474 86.457445 
L 305.900364 77.460344 
L 306.154255 80.222357 
L 306.408145 71.383759 
L 306.662035 77.521982 
L 306.915925 75.19886 
L 307.169816 81.067221 
L 307.423706 72.605075 
L 307.677596 81.080926 
L 307.931486 75.571147 
L 308.185377 62.575348 
L 308.439267 61.101735 
L 308.693157 61.540253 
L 308.947048 67.105147 
L 309.200938 61.173662 
L 309.454828 59.590085 
L 309.708718 63.964638 
L 309.962609 49.364205 
L 310.216499 51.108753 
L 310.470389 55.201895 
L 310.97817 50.338422 
L 311.23206 60.164844 
L 311.48595 49.887373 
L 311.73984 50.69823 
L 311.993731 50.942469 
L 312.247621 46.022427 
L 312.501511 34.3575 
L 313.009292 43.500486 
L 313.263182 36.512485 
L 313.263182 36.512485 
" clip-path="url(#p630be95cf6)" style="fill: none; stroke: #0c5da5; stroke-width: 2; stroke-linecap: square"/>
   </g>
   <g id="line2d_114">
    <path d="M 59.626818 181.822821 
L 70.544099 192.828696 
L 74.352453 196.352142 
L 77.145246 198.665285 
L 79.684148 200.487498 
L 81.969161 201.847411 
L 84.000283 202.805413 
L 86.031405 203.512985 
L 88.062527 203.968217 
L 90.093649 204.180991 
L 92.124771 204.171979 
L 94.409783 203.935046 
L 97.202576 203.402037 
L 107.612076 201.138434 
L 110.150979 200.959117 
L 112.435991 201.007782 
L 114.721003 201.262169 
L 117.259906 201.775319 
L 120.052699 202.581232 
L 123.607162 203.859728 
L 131.22387 206.682543 
L 134.270553 207.546518 
L 137.317236 208.175866 
L 140.363919 208.581614 
L 144.172273 208.847368 
L 149.250078 208.951411 
L 154.073993 208.834408 
L 158.136237 208.52691 
L 161.94459 208.024974 
L 165.499054 207.338408 
L 168.799627 206.486878 
L 172.100201 205.405926 
L 175.146884 204.18481 
L 178.193567 202.730911 
L 181.24025 201.026145 
L 184.286933 199.048306 
L 187.079726 196.955863 
L 189.618628 194.768433 
L 192.157531 192.261191 
L 194.696433 189.404752 
L 197.235336 186.198199 
L 200.028129 182.305747 
L 203.582592 176.927809 
L 210.437629 166.003519 
L 216.277105 156.922985 
L 220.847129 150.218083 
L 224.909373 144.649798 
L 228.463837 140.136847 
L 231.76441 136.283166 
L 235.064984 132.761352 
L 238.873337 129.039049 
L 262.485131 106.957724 
L 265.277924 104.798179 
L 267.816826 103.122175 
L 270.101839 101.874824 
L 272.386851 100.882761 
L 274.671863 100.13934 
L 276.956876 99.623051 
L 279.495778 99.272619 
L 282.796351 99.063041 
L 291.42862 98.662855 
L 294.475303 98.211977 
L 297.268096 97.577646 
L 300.568669 96.582058 
L 305.138694 94.930911 
L 313.263182 91.832063 
L 313.263182 91.832063 
" clip-path="url(#p630be95cf6)" style="fill: none; stroke: #00b945; stroke-width: 2; stroke-linecap: square"/>
   </g>
   <g id="line2d_115">
    <path d="M 59.626818 258.11324 
L 59.880708 260.576118 
L 60.388489 251.009848 
L 60.642379 259.132644 
L 60.896269 258.546686 
L 61.15016 248.972962 
L 61.40405 252.47727 
L 61.65794 258.122354 
L 61.91183 252.614064 
L 62.165721 257.165492 
L 62.419611 256.754336 
L 62.673501 252.840448 
L 62.927391 263.186555 
L 63.181282 261.908266 
L 63.435172 255.813075 
L 63.689062 257.764252 
L 63.942952 250.904289 
L 64.196843 256.74447 
L 64.450733 259.040998 
L 64.704623 244.548367 
L 64.958514 252.79765 
L 65.212404 251.204865 
L 65.466294 258.513758 
L 65.974075 250.731965 
L 66.227965 256.967563 
L 66.481855 249.362843 
L 66.735745 254.224713 
L 66.989636 252.719201 
L 67.243526 254.312771 
L 67.497416 242.186635 
L 68.005197 256.863809 
L 68.259087 247.651509 
L 68.512977 257.965075 
L 68.766867 251.031152 
L 69.020758 262.004284 
L 69.274648 259.075035 
L 69.528538 251.720759 
L 69.782428 249.272392 
L 70.036319 252.352083 
L 70.544099 255.267758 
L 70.797989 261.426481 
L 71.05188 257.973631 
L 71.30577 257.016984 
L 71.55966 249.815883 
L 71.81355 253.719294 
L 72.067441 264.559911 
L 72.321331 254.561676 
L 72.575221 258.475015 
L 72.829111 260.322797 
L 73.083002 254.321963 
L 73.336892 252.65057 
L 73.590782 253.566773 
L 73.844672 262.795746 
L 74.352453 257.847499 
L 74.606343 255.08695 
L 74.860233 262.76541 
L 75.114124 261.755718 
L 75.368014 266.784888 
L 75.621904 267.685585 
L 75.875794 258.154301 
L 76.129685 255.906899 
L 76.383575 263.463013 
L 76.637465 258.570816 
L 76.891355 262.215497 
L 77.145246 267.672089 
L 77.653026 257.713169 
L 77.906916 265.979508 
L 78.160807 258.460282 
L 78.414697 279.695445 
L 78.668587 263.012286 
L 79.176368 269.419907 
L 79.430258 267.884185 
L 79.684148 278.6208 
L 79.938038 270.222716 
L 80.191929 267.737487 
L 80.445819 262.538539 
L 80.699709 272.825737 
L 80.9536 274.621683 
L 81.20749 273.439217 
L 81.46138 266.725227 
L 81.969161 274.537782 
L 82.223051 269.648126 
L 82.476941 272.000305 
L 82.730831 267.937401 
L 82.984722 276.499999 
L 83.238612 274.881785 
L 83.492502 275.431271 
L 83.746392 280.972589 
L 84.000283 272.424874 
L 84.254173 272.784703 
L 84.761953 275.574493 
L 85.015844 281.584532 
L 85.269734 276.763419 
L 85.523624 276.484347 
L 85.777514 278.861476 
L 86.285295 273.000732 
L 86.539185 265.676194 
L 86.793075 274.21297 
L 87.046966 273.8116 
L 87.300856 275.456804 
L 87.554746 284.604082 
L 87.808636 275.15852 
L 88.062527 274.672618 
L 88.316417 262.655014 
L 88.570307 275.769929 
L 88.824197 273.210813 
L 89.078088 274.762697 
L 89.331978 280.264319 
L 89.585868 268.620906 
L 89.839758 270.396625 
L 90.093649 270.019046 
L 90.347539 278.274035 
L 90.601429 266.565186 
L 90.855319 280.279583 
L 91.3631 261.918638 
L 91.61699 277.46047 
L 91.87088 275.064954 
L 92.124771 271.454095 
L 92.378661 274.139067 
L 92.632551 279.018642 
L 92.886441 270.629461 
L 93.140332 275.899995 
L 93.394222 267.900759 
L 93.648112 274.450981 
L 93.902002 261.788228 
L 94.155893 272.990479 
L 94.409783 270.290104 
L 94.663673 264.227051 
L 94.917563 273.963611 
L 95.425344 260.465012 
L 95.679234 274.502115 
L 95.933124 265.132004 
L 96.187015 264.290089 
L 96.440905 261.220745 
L 96.694795 270.776327 
L 96.948686 270.705042 
L 97.202576 261.053954 
L 97.456466 261.67603 
L 97.710356 261.406718 
L 97.964247 260.42561 
L 98.218137 265.021554 
L 98.472027 259.976459 
L 98.725917 259.162373 
L 98.979808 263.657572 
L 99.233698 250.316369 
L 99.741478 264.485734 
L 99.995369 254.785484 
L 100.249259 262.382766 
L 100.503149 253.113574 
L 100.757039 250.75837 
L 101.01093 260.092981 
L 101.26482 250.721631 
L 101.51871 252.960958 
L 101.7726 250.432783 
L 102.026491 244.601346 
L 102.280381 254.76833 
L 102.534271 256.818815 
L 102.788161 257.023677 
L 103.042052 256.194215 
L 103.549832 249.539654 
L 103.803722 249.421412 
L 104.057613 246.255015 
L 104.311503 249.882631 
L 104.565393 242.310973 
L 104.819283 250.453342 
L 105.073174 235.225614 
L 105.580954 252.267309 
L 105.834844 252.976459 
L 106.088735 244.913048 
L 106.342625 248.094668 
L 106.596515 243.119458 
L 106.850405 244.015454 
L 107.104296 246.443271 
L 107.612076 253.081673 
L 108.119857 240.82223 
L 108.373747 243.803141 
L 108.627637 250.864123 
L 108.881527 243.629388 
L 109.135418 242.410355 
L 109.389308 248.572036 
L 109.643198 243.282264 
L 109.897088 243.642417 
L 110.150979 249.516243 
L 110.404869 241.974425 
L 110.658759 240.901532 
L 110.912649 238.258606 
L 111.16654 238.374823 
L 111.42043 250.451006 
L 111.67432 248.269844 
L 111.92821 241.069874 
L 112.435991 241.167778 
L 112.689881 224.649504 
L 112.943771 241.057401 
L 113.197662 238.359561 
L 113.451552 239.388724 
L 113.705442 241.036632 
L 113.959333 246.002681 
L 114.213223 240.839086 
L 114.467113 248.647848 
L 114.721003 246.192852 
L 114.974894 247.654328 
L 115.228784 245.075999 
L 115.482674 234.233023 
L 115.736564 255.296045 
L 115.990455 242.888894 
L 116.244345 254.620657 
L 116.752125 241.837136 
L 117.259906 253.311549 
L 117.513796 251.880687 
L 117.767686 245.329533 
L 118.021577 252.734901 
L 118.275467 248.435235 
L 118.529357 249.703541 
L 118.783247 253.599088 
L 119.037138 240.14097 
L 119.291028 248.097808 
L 119.544918 261.776426 
L 119.798808 251.249455 
L 120.052699 255.942758 
L 120.306589 248.898894 
L 120.560479 257.568068 
L 121.06826 252.119582 
L 121.32215 250.835645 
L 121.57604 261.621564 
L 121.82993 257.836184 
L 122.337711 260.469689 
L 122.591601 248.973042 
L 123.099382 265.080128 
L 123.353272 254.780608 
L 123.607162 249.325552 
L 123.861052 255.274367 
L 124.114943 268.490916 
L 124.368833 263.872921 
L 124.622723 255.692692 
L 124.876613 266.031621 
L 125.130504 260.825415 
L 125.384394 259.69462 
L 125.638284 268.662561 
L 125.892174 264.85302 
L 126.146065 281.167252 
L 126.399955 270.635109 
L 126.653845 267.279238 
L 126.907735 272.699683 
L 127.161626 258.844435 
L 127.415516 274.523726 
L 127.669406 270.044894 
L 127.923296 267.639619 
L 128.177187 261.545018 
L 128.431077 276.25707 
L 128.684967 263.731521 
L 129.192748 275.143539 
L 129.446638 268.319759 
L 129.700528 269.965308 
L 129.954419 274.260866 
L 130.208309 271.235406 
L 130.462199 273.786563 
L 130.96998 269.103225 
L 131.22387 264.744559 
L 131.47776 278.998577 
L 131.73165 262.436244 
L 131.985541 282.921175 
L 132.239431 274.126294 
L 132.493321 270.581264 
L 132.747211 272.222158 
L 133.001102 276.806115 
L 133.254992 274.814151 
L 133.508882 276.276984 
L 133.762772 276.779715 
L 134.016663 269.626314 
L 134.270553 272.052037 
L 134.524443 277.224678 
L 134.778333 269.236304 
L 135.032224 272.085246 
L 135.286114 269.451474 
L 135.540004 270.217116 
L 135.793894 277.298211 
L 136.047785 275.766037 
L 136.301675 269.044672 
L 136.555565 269.478471 
L 136.809455 272.344145 
L 137.063346 271.358372 
L 137.317236 265.265232 
L 137.571126 274.207564 
L 137.825016 268.170059 
L 138.078907 271.492441 
L 138.332797 271.140659 
L 138.586687 264.141067 
L 138.840577 265.019244 
L 139.094468 264.57168 
L 139.348358 261.593273 
L 139.602248 267.420734 
L 139.856138 263.550973 
L 140.110029 267.874531 
L 140.363919 264.085995 
L 140.617809 265.685141 
L 140.871699 263.87172 
L 141.12559 260.686421 
L 141.37948 266.980108 
L 141.63337 251.753234 
L 141.88726 266.376533 
L 142.141151 266.607837 
L 142.395041 253.987503 
L 142.648931 254.960369 
L 142.902821 254.92234 
L 143.156712 254.008766 
L 143.410602 256.279762 
L 143.664492 259.745217 
L 143.918382 253.953167 
L 144.172273 256.722418 
L 144.426163 247.514934 
L 144.680053 252.082144 
L 144.933943 254.425407 
L 145.441724 246.158103 
L 145.695614 249.933942 
L 145.949505 250.124096 
L 146.203395 243.715315 
L 146.457285 242.585352 
L 146.711175 245.186612 
L 146.965066 243.858745 
L 147.218956 239.202224 
L 147.472846 246.382884 
L 147.726736 244.998623 
L 148.742297 225.851607 
L 148.996188 227.701401 
L 149.250078 231.534079 
L 149.503968 229.602824 
L 149.757858 233.258202 
L 150.011749 227.129415 
L 150.265639 227.233956 
L 150.519529 222.955177 
L 150.773419 227.432875 
L 151.2812 213.225531 
L 151.53509 220.15252 
L 152.042871 213.725229 
L 152.296761 217.930904 
L 152.550651 213.608497 
L 152.804541 213.453559 
L 153.058432 211.832317 
L 153.312322 214.971727 
L 154.073993 200.409958 
L 154.327883 201.711151 
L 154.581773 194.644924 
L 154.835663 208.047905 
L 155.089554 198.795049 
L 155.343444 201.135027 
L 155.597334 190.091467 
L 155.851224 203.945676 
L 156.105115 203.069515 
L 156.359005 200.861573 
L 156.612895 207.447495 
L 156.866785 198.530007 
L 157.120676 198.739434 
L 157.374566 193.289202 
L 157.628456 191.432317 
L 157.882346 182.922167 
L 158.136237 186.667087 
L 158.390127 193.427831 
L 158.644017 194.219596 
L 158.897907 186.527303 
L 159.151798 194.783122 
L 159.405688 178.388812 
L 159.659578 180.932771 
L 160.167359 194.004761 
L 160.421249 178.147341 
L 160.675139 184.867971 
L 160.929029 177.595899 
L 161.18292 191.158699 
L 161.6907 182.265775 
L 161.94459 181.636556 
L 162.198481 183.718609 
L 162.452371 178.028657 
L 162.706261 186.110195 
L 162.960152 181.221367 
L 163.721822 176.312816 
L 163.975713 185.28946 
L 164.229603 187.207461 
L 164.483493 173.145706 
L 164.991274 183.157344 
L 165.245164 171.746362 
L 165.499054 178.939402 
L 165.752944 173.743101 
L 166.006835 179.396656 
L 166.260725 169.648488 
L 166.514615 171.36267 
L 166.768505 181.557484 
L 167.022396 175.754458 
L 167.276286 177.675233 
L 167.530176 174.412716 
L 167.784066 186.380914 
L 168.037957 178.573611 
L 168.291847 177.156135 
L 168.545737 191.628372 
L 168.799627 189.26673 
L 169.053518 194.053815 
L 169.307408 185.818642 
L 169.815188 178.231294 
L 170.069079 185.988456 
L 170.322969 178.946828 
L 170.576859 194.620878 
L 170.830749 196.973361 
L 171.08464 189.554961 
L 171.33853 188.17115 
L 171.59242 191.072122 
L 171.84631 202.043617 
L 172.100201 193.090249 
L 172.354091 200.039607 
L 172.607981 191.157177 
L 172.861871 193.619951 
L 173.115762 201.094465 
L 173.369652 199.978511 
L 173.623542 203.713505 
L 174.131323 195.809216 
L 174.385213 206.542897 
L 174.639103 200.239859 
L 174.892993 206.503097 
L 175.146884 208.946902 
L 175.400774 206.691616 
L 175.654664 212.475877 
L 175.908554 211.26572 
L 176.162445 215.6661 
L 176.416335 201.15348 
L 176.670225 211.967732 
L 176.924115 216.85448 
L 177.178006 213.554641 
L 177.685786 218.228188 
L 177.939676 215.342997 
L 178.193567 215.90319 
L 178.447457 223.584504 
L 178.701347 225.092014 
L 178.955238 224.882244 
L 179.209128 236.24661 
L 179.463018 233.624551 
L 179.716908 220.585955 
L 179.970799 220.492432 
L 180.224689 231.195967 
L 180.478579 228.376601 
L 180.732469 230.977236 
L 180.98636 218.495312 
L 181.49414 236.97578 
L 182.001921 246.835664 
L 182.255811 239.07944 
L 182.763591 249.614726 
L 183.017482 246.968008 
L 183.271372 250.327608 
L 183.525262 237.746933 
L 184.033043 248.498707 
L 184.286933 242.240625 
L 184.794713 256.107935 
L 185.048604 245.3412 
L 185.302494 251.302816 
L 185.556384 260.187837 
L 185.810274 257.006505 
L 186.318055 264.929941 
L 186.571945 254.415672 
L 186.825835 250.469632 
L 187.079726 267.834114 
L 187.333616 258.977403 
L 187.587506 265.88155 
L 187.841396 265.914428 
L 188.095287 267.258186 
L 188.349177 269.402979 
L 188.603067 265.634662 
L 188.856957 270.74842 
L 189.110848 265.98709 
L 189.872518 273.819729 
L 190.126409 272.777165 
L 190.380299 266.727417 
L 190.634189 268.536463 
L 190.888079 276.401203 
L 191.39586 268.74576 
L 191.64975 281.205781 
L 191.90364 270.599961 
L 192.157531 276.960143 
L 192.411421 271.163451 
L 192.919201 283.55022 
L 193.173092 282.911318 
L 193.426982 274.793141 
L 193.680872 273.922636 
L 193.934762 279.860796 
L 194.188653 272.310952 
L 194.442543 283.836304 
L 194.696433 275.964711 
L 194.950324 281.686768 
L 195.458104 275.400925 
L 195.711994 279.854822 
L 195.965885 277.400465 
L 196.219775 270.368136 
L 196.473665 278.092346 
L 196.727555 270.894569 
L 196.981446 280.462166 
L 197.489226 267.188998 
L 197.743116 286.3575 
L 198.250897 270.548904 
L 198.504787 274.06217 
L 198.758677 270.817023 
L 199.012568 275.24931 
L 199.266458 271.376038 
L 199.520348 272.116373 
L 199.774238 265.049232 
L 200.028129 269.079486 
L 200.282019 268.133059 
L 200.535909 271.304403 
L 200.789799 271.104999 
L 201.04369 270.234842 
L 201.29758 265.506912 
L 201.55147 268.92506 
L 201.80536 264.737059 
L 202.059251 255.187353 
L 202.567031 265.729732 
L 202.820921 257.414685 
L 203.328702 272.029293 
L 203.582592 266.142599 
L 203.836482 269.652654 
L 204.090373 261.308443 
L 204.344263 258.666702 
L 204.598153 249.61052 
L 204.852043 255.496288 
L 205.105934 257.378383 
L 205.359824 251.324887 
L 205.613714 265.592466 
L 205.867604 252.573246 
L 206.121495 249.051046 
L 206.375385 259.367793 
L 206.629275 245.460109 
L 207.137056 251.459547 
L 207.390946 245.370127 
L 207.644836 236.347214 
L 207.898726 245.851457 
L 208.152617 244.64177 
L 208.406507 247.281045 
L 208.660397 248.346032 
L 208.914287 239.119706 
L 209.168178 246.634183 
L 209.422068 241.157422 
L 209.675958 243.028311 
L 209.929848 237.419007 
L 210.183739 237.295031 
L 210.437629 232.95704 
L 210.691519 239.820559 
L 210.94541 237.805845 
L 211.1993 240.519273 
L 211.960971 229.525266 
L 212.214861 237.1099 
L 212.468751 227.452526 
L 212.722641 224.300972 
L 212.976532 228.264894 
L 213.230422 220.285249 
L 213.484312 232.774357 
L 213.992093 236.445246 
L 214.245983 219.529107 
L 214.753763 226.028261 
L 215.007654 223.782063 
L 215.261544 230.211557 
L 215.515434 211.920199 
L 215.769324 222.921075 
L 216.023215 222.525583 
L 216.277105 218.989339 
L 216.784885 220.608425 
L 217.038776 225.247979 
L 217.546556 211.226087 
L 217.800446 213.562146 
L 218.054337 212.023161 
L 218.308227 222.202651 
L 218.562117 224.323341 
L 218.816007 219.796364 
L 219.069898 218.686738 
L 219.323788 213.342188 
L 219.577678 227.039742 
L 219.831568 210.89088 
L 220.085459 219.175629 
L 220.339349 220.433158 
L 220.847129 226.457042 
L 221.10102 214.135715 
L 221.35491 217.887477 
L 221.6088 224.714525 
L 221.86269 224.815035 
L 222.116581 220.146407 
L 222.370471 210.305311 
L 222.878251 226.402424 
L 223.132142 220.351818 
L 223.386032 220.71098 
L 223.639922 233.011939 
L 223.893812 220.147519 
L 224.147703 221.322529 
L 224.655483 211.645699 
L 224.909373 215.602834 
L 225.417154 227.502479 
L 225.671044 209.639212 
L 225.924934 222.590462 
L 226.432715 223.97028 
L 226.686605 223.37785 
L 227.194386 228.29567 
L 227.448276 228.730147 
L 227.702166 226.759383 
L 227.956057 229.900091 
L 228.209947 231.360488 
L 228.463837 227.921195 
L 228.717727 230.36665 
L 228.971618 222.285028 
L 229.225508 243.618191 
L 229.479398 225.702375 
L 229.733288 225.636171 
L 229.987179 242.852932 
L 230.241069 234.973838 
L 230.494959 235.852238 
L 230.748849 241.748189 
L 231.00274 239.371786 
L 231.25663 241.788498 
L 231.51052 228.325865 
L 231.76441 233.162399 
L 232.018301 232.275606 
L 232.272191 235.797805 
L 232.526081 245.791851 
L 232.779971 243.583628 
L 233.033862 239.343553 
L 233.287752 248.655343 
L 233.541642 239.839818 
L 233.795532 245.385349 
L 234.049423 246.860528 
L 234.303313 242.26886 
L 234.557203 244.400066 
L 234.811093 249.206937 
L 235.064984 242.450148 
L 235.318874 254.386579 
L 235.572764 246.744619 
L 235.826654 247.648449 
L 236.080545 252.92126 
L 236.334435 250.540645 
L 236.588325 259.155286 
L 236.842215 249.108057 
L 237.096106 255.380021 
L 237.349996 257.810293 
L 237.603886 250.738509 
L 237.857776 260.188041 
L 238.111667 264.411425 
L 238.365557 265.860467 
L 238.619447 255.810362 
L 238.873337 265.878689 
L 239.127228 251.466967 
L 239.381118 271.206513 
L 239.635008 253.074566 
L 239.888898 261.09815 
L 240.396679 266.09135 
L 240.650569 261.993442 
L 240.904459 264.74502 
L 241.15835 259.637364 
L 241.41224 265.102979 
L 241.66613 265.45566 
L 241.92002 268.525835 
L 242.427801 266.166832 
L 242.681691 276.662217 
L 242.935581 275.307718 
L 243.189472 265.336965 
L 243.697252 270.744886 
L 243.951143 270.109398 
L 244.205033 268.824798 
L 244.458923 273.568727 
L 244.712813 275.067792 
L 244.966704 270.518448 
L 245.220594 276.630083 
L 245.474484 269.990806 
L 245.728374 280.719359 
L 245.982265 267.35327 
L 246.236155 270.315068 
L 246.490045 271.566741 
L 246.997826 264.850166 
L 247.251716 268.202658 
L 247.505606 282.493292 
L 248.521167 270.955928 
L 248.775057 277.136361 
L 249.028948 272.579753 
L 249.282838 277.224827 
L 249.536728 276.452252 
L 249.790618 280.329641 
L 250.044509 277.832558 
L 250.298399 279.851065 
L 250.552289 277.853652 
L 250.806179 267.617619 
L 251.06007 277.412454 
L 251.31396 259.425774 
L 251.56785 269.863931 
L 251.82174 271.185422 
L 252.075631 276.143951 
L 252.329521 268.152152 
L 252.583411 274.237814 
L 252.837301 270.497365 
L 253.091192 258.09042 
L 253.345082 270.995789 
L 253.598972 264.491894 
L 253.852862 273.375951 
L 254.106753 269.716502 
L 254.360643 260.389778 
L 254.614533 271.949785 
L 254.868423 259.451067 
L 255.376204 270.485467 
L 255.630094 264.144921 
L 255.883984 262.045018 
L 256.137875 263.371789 
L 256.391765 273.84498 
L 256.899545 266.399792 
L 257.153436 265.095543 
L 257.407326 261.19078 
L 257.661216 262.93923 
L 257.915106 270.003393 
L 258.168997 261.013088 
L 258.422887 259.403216 
L 258.676777 259.188824 
L 258.930667 256.129966 
L 259.184558 256.887203 
L 259.438448 258.279535 
L 259.692338 260.440382 
L 259.946229 267.8787 
L 260.200119 257.016162 
L 260.454009 257.651881 
L 260.707899 256.868849 
L 260.96179 264.103723 
L 261.21568 262.671558 
L 261.46957 251.60597 
L 261.72346 256.587419 
L 261.977351 252.556752 
L 262.231241 255.36363 
L 262.485131 254.922137 
L 262.739021 249.977647 
L 262.992912 256.787184 
L 263.246802 253.330785 
L 263.500692 255.701941 
L 263.754582 255.167544 
L 264.008473 254.157294 
L 264.262363 251.13827 
L 264.516253 254.255077 
L 264.770143 245.274845 
L 265.024034 255.619099 
L 265.277924 251.765663 
L 265.531814 252.699549 
L 265.785704 243.008719 
L 266.039595 248.926622 
L 266.293485 244.488302 
L 266.547375 256.731107 
L 266.801265 247.759143 
L 267.055156 244.41901 
L 267.309046 248.201954 
L 267.562936 243.097729 
L 267.816826 250.764953 
L 268.070717 241.000241 
L 268.324607 236.406672 
L 268.578497 249.483803 
L 268.832387 249.754817 
L 269.086278 240.190476 
L 269.340168 239.455176 
L 269.594058 249.815675 
L 270.101839 248.482961 
L 270.355729 253.723724 
L 270.609619 251.581269 
L 270.863509 251.997405 
L 271.1174 250.830327 
L 271.37129 247.210357 
L 271.62518 245.915013 
L 271.87907 239.429376 
L 272.132961 252.175991 
L 272.386851 242.410828 
L 272.640741 248.476529 
L 272.894631 247.78342 
L 273.148522 244.323885 
L 273.402412 253.417853 
L 273.656302 246.108736 
L 273.910192 247.371955 
L 274.164083 245.956609 
L 274.417973 247.188145 
L 274.671863 236.655499 
L 274.925753 252.283875 
L 275.179644 252.019395 
L 275.433534 252.758237 
L 275.687424 252.716863 
L 275.941314 253.433041 
L 276.195205 244.675674 
L 276.449095 243.860686 
L 276.702985 254.108926 
L 276.956876 255.770797 
L 277.210766 249.662525 
L 277.464656 255.136669 
L 277.718546 249.64111 
L 277.972437 252.186175 
L 278.226327 261.148189 
L 278.480217 246.346878 
L 278.734107 245.549147 
L 278.987998 257.969808 
L 279.241888 257.30523 
L 279.495778 254.418961 
L 279.749668 254.647143 
L 280.003559 253.512545 
L 280.257449 247.275673 
L 280.511339 258.637704 
L 281.01912 265.607432 
L 281.5269 259.922937 
L 281.78079 251.345133 
L 282.034681 263.350737 
L 282.288571 260.177093 
L 282.542461 261.884426 
L 283.050242 250.266606 
L 283.304132 265.980477 
L 283.558022 266.284904 
L 283.811912 259.168721 
L 284.065803 261.47489 
L 284.319693 256.185571 
L 284.827473 268.142372 
L 285.081364 263.906558 
L 285.335254 261.811712 
L 285.843034 265.74174 
L 286.096925 263.418787 
L 286.350815 263.357911 
L 286.604705 262.739528 
L 287.112486 271.290632 
L 287.366376 270.13819 
L 287.620266 265.265258 
L 287.874156 275.708073 
L 288.128047 270.183952 
L 288.381937 274.328661 
L 288.635827 272.572308 
L 288.889717 266.686512 
L 289.143608 272.403895 
L 289.397498 273.418649 
L 289.651388 280.688982 
L 289.905278 270.480295 
L 290.159169 271.225414 
L 290.413059 263.905785 
L 290.666949 276.39776 
L 290.920839 273.966211 
L 291.17473 273.984316 
L 291.42862 267.530114 
L 291.68251 275.973879 
L 292.190291 272.66995 
L 292.444181 274.827833 
L 292.698071 278.016246 
L 293.205852 270.473667 
L 293.459742 280.887008 
L 293.713632 275.071542 
L 293.967523 279.13827 
L 294.221413 269.617334 
L 294.475303 283.007462 
L 295.236974 267.132507 
L 295.490864 275.018934 
L 295.744754 277.203357 
L 295.998645 264.816591 
L 296.252535 281.0674 
L 296.506425 284.47403 
L 296.760315 271.003364 
L 297.014206 275.309126 
L 297.268096 277.486528 
L 297.521986 268.458221 
L 297.775876 270.312109 
L 298.283657 276.900099 
L 298.537547 265.664347 
L 298.791437 266.210244 
L 299.045328 269.351102 
L 299.299218 259.067373 
L 299.553108 272.932378 
L 299.806998 274.53602 
L 300.314779 265.782838 
L 300.568669 263.611828 
L 300.822559 265.262106 
L 301.07645 261.52991 
L 301.33034 268.695965 
L 301.58423 254.466874 
L 301.83812 261.200691 
L 302.092011 254.36293 
L 302.345901 257.316922 
L 302.853681 254.330203 
L 303.107572 253.976736 
L 303.361462 252.026736 
L 303.615352 247.613977 
L 303.869242 252.225511 
L 304.123133 248.63978 
L 304.377023 251.554762 
L 304.630913 242.875752 
L 304.884803 252.307802 
L 305.138694 238.885449 
L 305.646474 252.693435 
L 305.900364 243.792706 
L 306.154255 246.651223 
L 306.408145 237.909238 
L 306.662035 244.144162 
L 306.915925 241.917808 
L 307.169816 247.88299 
L 307.423706 239.517705 
L 307.677596 248.090445 
L 307.931486 242.677575 
L 308.185377 229.7787 
L 308.439267 228.402022 
L 308.693157 228.937485 
L 308.947048 234.59933 
L 309.200938 228.764801 
L 309.454828 227.278183 
L 309.708718 231.749698 
L 309.962609 217.246228 
L 310.216499 219.087742 
L 310.470389 223.27785 
L 310.97817 218.60831 
L 311.23206 228.531701 
L 311.48595 218.351197 
L 311.73984 219.259022 
L 311.993731 219.600229 
L 312.247621 214.777155 
L 312.501511 203.209196 
L 313.009292 212.546118 
L 313.263182 205.655084 
L 313.263182 205.655084 
" clip-path="url(#p630be95cf6)" style="fill: none; stroke: #ff9500; stroke-width: 2; stroke-linecap: square"/>
   </g>
   <g id="patch_3">
    <path d="M 46.945 298.9575 
L 46.945 21.7575 
" style="fill: none; stroke: #000000; stroke-linejoin: miter; stroke-linecap: square"/>
   </g>
   <g id="patch_4">
    <path d="M 325.945 298.9575 
L 325.945 21.7575 
" style="fill: none; stroke: #000000; stroke-linejoin: miter; stroke-linecap: square"/>
   </g>
   <g id="patch_5">
    <path d="M 46.945 298.9575 
L 325.945 298.9575 
" style="fill: none; stroke: #000000; stroke-linejoin: miter; stroke-linecap: square"/>
   </g>
   <g id="patch_6">
    <path d="M 46.945 21.7575 
L 325.945 21.7575 
" style="fill: none; stroke: #000000; stroke-linejoin: miter; stroke-linecap: square"/>
   </g>
   <g id="text_13">
    <!-- Adaptive ARPLS Baseline Correction -->
    <g transform="translate(42.715 15.7575) scale(0.16 -0.16)">
     <defs>
      <path id="DejaVuSans-41" d="M 2188 4044 
L 1331 1722 
L 3047 1722 
L 2188 4044 
z
M 1831 4666 
L 2547 4666 
L 4325 0 
L 3669 0 
L 3244 1197 
L 1141 1197 
L 716 0 
L 50 0 
L 1831 4666 
z
" transform="scale(0.015625)"/>
      <path id="DejaVuSans-64" d="M 2906 2969 
L 2906 4863 
L 3481 4863 
L 3481 0 
L 2906 0 
L 2906 525 
Q 2725 213 2448 61 
Q 2172 -91 1784 -91 
Q 1150 -91 751 415 
Q 353 922 353 1747 
Q 353 2572 751 3078 
Q 1150 3584 1784 3584 
Q 2172 3584 2448 3432 
Q 2725 3281 2906 2969 
z
M 947 1747 
Q 947 1113 1208 752 
Q 1469 391 1925 391 
Q 2381 391 2643 752 
Q 2906 1113 2906 1747 
Q 2906 2381 2643 2742 
Q 2381 3103 1925 3103 
Q 1469 3103 1208 2742 
Q 947 2381 947 1747 
z
" transform="scale(0.015625)"/>
      <path id="DejaVuSans-70" d="M 1159 525 
L 1159 -1331 
L 581 -1331 
L 581 3500 
L 1159 3500 
L 1159 2969 
Q 1341 3281 1617 3432 
Q 1894 3584 2278 3584 
Q 2916 3584 3314 3078 
Q 3713 2572 3713 1747 
Q 3713 922 3314 415 
Q 2916 -91 2278 -91 
Q 1894 -91 1617 61 
Q 1341 213 1159 525 
z
M 3116 1747 
Q 3116 2381 2855 2742 
Q 2594 3103 2138 3103 
Q 1681 3103 1420 2742 
Q 1159 2381 1159 1747 
Q 1159 1113 1420 752 
Q 1681 391 2138 391 
Q 2594 391 2855 752 
Q 3116 1113 3116 1747 
z
" transform="scale(0.015625)"/>
      <path id="DejaVuSans-74" d="M 1172 4494 
L 1172 3500 
L 2356 3500 
L 2356 3053 
L 1172 3053 
L 1172 1153 
Q 1172 725 1289 603 
Q 1406 481 1766 481 
L 2356 481 
L 2356 0 
L 1766 0 
Q 1100 0 847 248 
Q 594 497 594 1153 
L 594 3053 
L 172 3053 
L 172 3500 
L 594 3500 
L 594 4494 
L 1172 4494 
z
" transform="scale(0.015625)"/>
      <path id="DejaVuSans-76" d="M 191 3500 
L 800 3500 
L 1894 563 
L 2988 3500 
L 3597 3500 
L 2284 0 
L 1503 0 
L 191 3500 
z
" transform="scale(0.015625)"/>
      <path id="DejaVuSans-65" d="M 3597 1894 
L 3597 1613 
L 953 1613 
Q 991 1019 1311 708 
Q 1631 397 2203 397 
Q 2534 397 2845 478 
Q 3156 559 3463 722 
L 3463 178 
Q 3153 47 2828 -22 
Q 2503 -91 2169 -91 
Q 1331 -91 842 396 
Q 353 884 353 1716 
Q 353 2575 817 3079 
Q 1281 3584 2069 3584 
Q 2775 3584 3186 3129 
Q 3597 2675 3597 1894 
z
M 3022 2063 
Q 3016 2534 2758 2815 
Q 2500 3097 2075 3097 
Q 1594 3097 1305 2825 
Q 1016 2553 972 2059 
L 3022 2063 
z
" transform="scale(0.015625)"/>
      <path id="DejaVuSans-20" transform="scale(0.015625)"/>
      <path id="DejaVuSans-52" d="M 2841 2188 
Q 3044 2119 3236 1894 
Q 3428 1669 3622 1275 
L 4263 0 
L 3584 0 
L 2988 1197 
Q 2756 1666 2539 1819 
Q 2322 1972 1947 1972 
L 1259 1972 
L 1259 0 
L 628 0 
L 628 4666 
L 2053 4666 
Q 2853 4666 3247 4331 
Q 3641 3997 3641 3322 
Q 3641 2881 3436 2590 
Q 3231 2300 2841 2188 
z
M 1259 4147 
L 1259 2491 
L 2053 2491 
Q 2509 2491 2742 2702 
Q 2975 2913 2975 3322 
Q 2975 3731 2742 3939 
Q 2509 4147 2053 4147 
L 1259 4147 
z
" transform="scale(0.015625)"/>
      <path id="DejaVuSans-50" d="M 1259 4147 
L 1259 2394 
L 2053 2394 
Q 2494 2394 2734 2622 
Q 2975 2850 2975 3272 
Q 2975 3691 2734 3919 
Q 2494 4147 2053 4147 
L 1259 4147 
z
M 628 4666 
L 2053 4666 
Q 2838 4666 3239 4311 
Q 3641 3956 3641 3272 
Q 3641 2581 3239 2228 
Q 2838 1875 2053 1875 
L 1259 1875 
L 1259 0 
L 628 0 
L 628 4666 
z
" transform="scale(0.015625)"/>
      <path id="DejaVuSans-4c" d="M 628 4666 
L 1259 4666 
L 1259 531 
L 3531 531 
L 3531 0 
L 628 0 
L 628 4666 
z
" transform="scale(0.015625)"/>
      <path id="DejaVuSans-42" d="M 1259 2228 
L 1259 519 
L 2272 519 
Q 2781 519 3026 730 
Q 3272 941 3272 1375 
Q 3272 1813 3026 2020 
Q 2781 2228 2272 2228 
L 1259 2228 
z
M 1259 4147 
L 1259 2741 
L 2194 2741 
Q 2656 2741 2882 2914 
Q 3109 3088 3109 3444 
Q 3109 3797 2882 3972 
Q 2656 4147 2194 4147 
L 1259 4147 
z
M 628 4666 
L 2241 4666 
Q 2963 4666 3353 4366 
Q 3744 4066 3744 3513 
Q 3744 3084 3544 2831 
Q 3344 2578 2956 2516 
Q 3422 2416 3680 2098 
Q 3938 1781 3938 1306 
Q 3938 681 3513 340 
Q 3088 0 2303 0 
L 628 0 
L 628 4666 
z
" transform="scale(0.015625)"/>
      <path id="DejaVuSans-73" d="M 2834 3397 
L 2834 2853 
Q 2591 2978 2328 3040 
Q 2066 3103 1784 3103 
Q 1356 3103 1142 2972 
Q 928 2841 928 2578 
Q 928 2378 1081 2264 
Q 1234 2150 1697 2047 
L 1894 2003 
Q 2506 1872 2764 1633 
Q 3022 1394 3022 966 
Q 3022 478 2636 193 
Q 2250 -91 1575 -91 
Q 1294 -91 989 -36 
Q 684 19 347 128 
L 347 722 
Q 666 556 975 473 
Q 1284 391 1588 391 
Q 1994 391 2212 530 
Q 2431 669 2431 922 
Q 2431 1156 2273 1281 
Q 2116 1406 1581 1522 
L 1381 1569 
Q 847 1681 609 1914 
Q 372 2147 372 2553 
Q 372 3047 722 3315 
Q 1072 3584 1716 3584 
Q 2034 3584 2315 3537 
Q 2597 3491 2834 3397 
z
" transform="scale(0.015625)"/>
      <path id="DejaVuSans-43" d="M 4122 4306 
L 4122 3641 
Q 3803 3938 3442 4084 
Q 3081 4231 2675 4231 
Q 1875 4231 1450 3742 
Q 1025 3253 1025 2328 
Q 1025 1406 1450 917 
Q 1875 428 2675 428 
Q 3081 428 3442 575 
Q 3803 722 4122 1019 
L 4122 359 
Q 3791 134 3420 21 
Q 3050 -91 2638 -91 
Q 1578 -91 968 557 
Q 359 1206 359 2328 
Q 359 3453 968 4101 
Q 1578 4750 2638 4750 
Q 3056 4750 3426 4639 
Q 3797 4528 4122 4306 
z
" transform="scale(0.015625)"/>
      <path id="DejaVuSans-6f" d="M 1959 3097 
Q 1497 3097 1228 2736 
Q 959 2375 959 1747 
Q 959 1119 1226 758 
Q 1494 397 1959 397 
Q 2419 397 2687 759 
Q 2956 1122 2956 1747 
Q 2956 2369 2687 2733 
Q 2419 3097 1959 3097 
z
M 1959 3584 
Q 2709 3584 3137 3096 
Q 3566 2609 3566 1747 
Q 3566 888 3137 398 
Q 2709 -91 1959 -91 
Q 1206 -91 779 398 
Q 353 888 353 1747 
Q 353 2609 779 3096 
Q 1206 3584 1959 3584 
z
" transform="scale(0.015625)"/>
      <path id="DejaVuSans-72" d="M 2631 2963 
Q 2534 3019 2420 3045 
Q 2306 3072 2169 3072 
Q 1681 3072 1420 2755 
Q 1159 2438 1159 1844 
L 1159 0 
L 581 0 
L 581 3500 
L 1159 3500 
L 1159 2956 
Q 1341 3275 1631 3429 
Q 1922 3584 2338 3584 
Q 2397 3584 2469 3576 
Q 2541 3569 2628 3553 
L 2631 2963 
z
" transform="scale(0.015625)"/>
      <path id="DejaVuSans-63" d="M 3122 3366 
L 3122 2828 
Q 2878 2963 2633 3030 
Q 2388 3097 2138 3097 
Q 1578 3097 1268 2742 
Q 959 2388 959 1747 
Q 959 1106 1268 751 
Q 1578 397 2138 397 
Q 2388 397 2633 464 
Q 2878 531 3122 666 
L 3122 134 
Q 2881 22 2623 -34 
Q 2366 -91 2075 -91 
Q 1284 -91 818 406 
Q 353 903 353 1747 
Q 353 2603 823 3093 
Q 1294 3584 2113 3584 
Q 2378 3584 2631 3529 
Q 2884 3475 3122 3366 
z
" transform="scale(0.015625)"/>
     </defs>
     <use xlink:href="#DejaVuSans-41"/>
     <use xlink:href="#DejaVuSans-64" x="66.658203"/>
     <use xlink:href="#DejaVuSans-61" x="130.134766"/>
     <use xlink:href="#DejaVuSans-70" x="191.414062"/>
     <use xlink:href="#DejaVuSans-74" x="254.890625"/>
     <use xlink:href="#DejaVuSans-69" x="294.099609"/>
     <use xlink:href="#DejaVuSans-76" x="321.882812"/>
     <use xlink:href="#DejaVuSans-65" x="381.0625"/>
     <use xlink:href="#DejaVuSans-20" x="442.585938"/>
     <use xlink:href="#DejaVuSans-41" x="474.373047"/>
     <use xlink:href="#DejaVuSans-52" x="542.78125"/>
     <use xlink:href="#DejaVuSans-50" x="612.263672"/>
     <use xlink:href="#DejaVuSans-4c" x="672.566406"/>
     <use xlink:href="#DejaVuSans-53" x="728.279297"/>
     <use xlink:href="#DejaVuSans-20" x="791.755859"/>
     <use xlink:href="#DejaVuSans-42" x="823.542969"/>
     <use xlink:href="#DejaVuSans-61" x="892.146484"/>
     <use xlink:href="#DejaVuSans-73" x="953.425781"/>
     <use xlink:href="#DejaVuSans-65" x="1005.525391"/>
     <use xlink:href="#DejaVuSans-6c" x="1067.048828"/>
     <use xlink:href="#DejaVuSans-69" x="1094.832031"/>
     <use xlink:href="#DejaVuSans-6e" x="1122.615234"/>
     <use xlink:href="#DejaVuSans-65" x="1185.994141"/>
     <use xlink:href="#DejaVuSans-20" x="1247.517578"/>
     <use xlink:href="#DejaVuSans-43" x="1279.304688"/>
     <use xlink:href="#DejaVuSans-6f" x="1349.128906"/>
     <use xlink:href="#DejaVuSans-72" x="1410.310547"/>
     <use xlink:href="#DejaVuSans-72" x="1449.673828"/>
     <use xlink:href="#DejaVuSans-65" x="1488.537109"/>
     <use xlink:href="#DejaVuSans-63" x="1550.060547"/>
     <use xlink:href="#DejaVuSans-74" x="1605.041016"/>
     <use xlink:href="#DejaVuSans-69" x="1644.25"/>
     <use xlink:href="#DejaVuSans-6f" x="1672.033203"/>
     <use xlink:href="#DejaVuSans-6e" x="1733.214844"/>
    </g>
   </g>
   <g id="legend_1">
    <g id="patch_7">
     <path d="M 58.145 105.0125 
L 263.095 105.0125 
Q 266.295 105.0125 266.295 101.8125 
L 266.295 32.9575 
Q 266.295 29.7575 263.095 29.7575 
L 58.145 29.7575 
Q 54.945 29.7575 54.945 32.9575 
L 54.945 101.8125 
Q 54.945 105.0125 58.145 105.0125 
z
" style="fill: #ffffff; stroke: #cccccc; stroke-linejoin: miter"/>
    </g>
    <g id="line2d_116">
     <path d="M 61.345 42.715 
L 77.345 42.715 
L 93.345 42.715 
" style="fill: none; stroke: #0c5da5; stroke-width: 2; stroke-linecap: square"/>
    </g>
    <g id="text_14">
     <!-- Original Signal -->
     <g transform="translate(106.145 48.315) scale(0.16 -0.16)">
      <defs>
       <path id="DejaVuSans-4f" d="M 2522 4238 
Q 1834 4238 1429 3725 
Q 1025 3213 1025 2328 
Q 1025 1447 1429 934 
Q 1834 422 2522 422 
Q 3209 422 3611 934 
Q 4013 1447 4013 2328 
Q 4013 3213 3611 3725 
Q 3209 4238 2522 4238 
z
M 2522 4750 
Q 3503 4750 4090 4092 
Q 4678 3434 4678 2328 
Q 4678 1225 4090 567 
Q 3503 -91 2522 -91 
Q 1538 -91 948 565 
Q 359 1222 359 2328 
Q 359 3434 948 4092 
Q 1538 4750 2522 4750 
z
" transform="scale(0.015625)"/>
      </defs>
      <use xlink:href="#DejaVuSans-4f"/>
      <use xlink:href="#DejaVuSans-72" x="78.710938"/>
      <use xlink:href="#DejaVuSans-69" x="119.824219"/>
      <use xlink:href="#DejaVuSans-67" x="147.607422"/>
      <use xlink:href="#DejaVuSans-69" x="211.083984"/>
      <use xlink:href="#DejaVuSans-6e" x="238.867188"/>
      <use xlink:href="#DejaVuSans-61" x="302.246094"/>
      <use xlink:href="#DejaVuSans-6c" x="363.525391"/>
      <use xlink:href="#DejaVuSans-20" x="391.308594"/>
      <use xlink:href="#DejaVuSans-53" x="423.095703"/>
      <use xlink:href="#DejaVuSans-69" x="486.572266"/>
      <use xlink:href="#DejaVuSans-67" x="514.355469"/>
      <use xlink:href="#DejaVuSans-6e" x="577.832031"/>
      <use xlink:href="#DejaVuSans-61" x="641.210938"/>
      <use xlink:href="#DejaVuSans-6c" x="702.490234"/>
     </g>
    </g>
    <g id="line2d_117">
     <path d="M 61.345 66.2 
L 77.345 66.2 
L 93.345 66.2 
" style="fill: none; stroke: #00b945; stroke-width: 2; stroke-linecap: square"/>
    </g>
    <g id="text_15">
     <!-- Estimated Baseline -->
     <g transform="translate(106.145 71.8) scale(0.16 -0.16)">
      <defs>
       <path id="DejaVuSans-45" d="M 628 4666 
L 3578 4666 
L 3578 4134 
L 1259 4134 
L 1259 2753 
L 3481 2753 
L 3481 2222 
L 1259 2222 
L 1259 531 
L 3634 531 
L 3634 0 
L 628 0 
L 628 4666 
z
" transform="scale(0.015625)"/>
       <path id="DejaVuSans-6d" d="M 3328 2828 
Q 3544 3216 3844 3400 
Q 4144 3584 4550 3584 
Q 5097 3584 5394 3201 
Q 5691 2819 5691 2113 
L 5691 0 
L 5113 0 
L 5113 2094 
Q 5113 2597 4934 2840 
Q 4756 3084 4391 3084 
Q 3944 3084 3684 2787 
Q 3425 2491 3425 1978 
L 3425 0 
L 2847 0 
L 2847 2094 
Q 2847 2600 2669 2842 
Q 2491 3084 2119 3084 
Q 1678 3084 1418 2786 
Q 1159 2488 1159 1978 
L 1159 0 
L 581 0 
L 581 3500 
L 1159 3500 
L 1159 2956 
Q 1356 3278 1631 3431 
Q 1906 3584 2284 3584 
Q 2666 3584 2933 3390 
Q 3200 3197 3328 2828 
z
" transform="scale(0.015625)"/>
      </defs>
      <use xlink:href="#DejaVuSans-45"/>
      <use xlink:href="#DejaVuSans-73" x="63.183594"/>
      <use xlink:href="#DejaVuSans-74" x="115.283203"/>
      <use xlink:href="#DejaVuSans-69" x="154.492188"/>
      <use xlink:href="#DejaVuSans-6d" x="182.275391"/>
      <use xlink:href="#DejaVuSans-61" x="279.6875"/>
      <use xlink:href="#DejaVuSans-74" x="340.966797"/>
      <use xlink:href="#DejaVuSans-65" x="380.175781"/>
      <use xlink:href="#DejaVuSans-64" x="441.699219"/>
      <use xlink:href="#DejaVuSans-20" x="505.175781"/>
      <use xlink:href="#DejaVuSans-42" x="536.962891"/>
      <use xlink:href="#DejaVuSans-61" x="605.566406"/>
      <use xlink:href="#DejaVuSans-73" x="666.845703"/>
      <use xlink:href="#DejaVuSans-65" x="718.945312"/>
      <use xlink:href="#DejaVuSans-6c" x="780.46875"/>
      <use xlink:href="#DejaVuSans-69" x="808.251953"/>
      <use xlink:href="#DejaVuSans-6e" x="836.035156"/>
      <use xlink:href="#DejaVuSans-65" x="899.414062"/>
     </g>
    </g>
    <g id="line2d_118">
     <path d="M 61.345 89.685 
L 77.345 89.685 
L 93.345 89.685 
" style="fill: none; stroke: #ff9500; stroke-width: 2; stroke-linecap: square"/>
    </g>
    <g id="text_16">
     <!-- Corrected Signal -->
     <g transform="translate(106.145 95.285) scale(0.16 -0.16)">
      <use xlink:href="#DejaVuSans-43"/>
      <use xlink:href="#DejaVuSans-6f" x="69.824219"/>
      <use xlink:href="#DejaVuSans-72" x="131.005859"/>
      <use xlink:href="#DejaVuSans-72" x="170.369141"/>
      <use xlink:href="#DejaVuSans-65" x="209.232422"/>
      <use xlink:href="#DejaVuSans-63" x="270.755859"/>
      <use xlink:href="#DejaVuSans-74" x="325.736328"/>
      <use xlink:href="#DejaVuSans-65" x="364.945312"/>
      <use xlink:href="#DejaVuSans-64" x="426.46875"/>
      <use xlink:href="#DejaVuSans-20" x="489.945312"/>
      <use xlink:href="#DejaVuSans-53" x="521.732422"/>
      <use xlink:href="#DejaVuSans-69" x="585.208984"/>
      <use xlink:href="#DejaVuSans-67" x="612.992188"/>
      <use xlink:href="#DejaVuSans-6e" x="676.46875"/>
      <use xlink:href="#DejaVuSans-61" x="739.847656"/>
      <use xlink:href="#DejaVuSans-6c" x="801.126953"/>
     </g>
    </g>
   </g>
  </g>
 </g>
 <defs>
  <clipPath id="p630be95cf6">
   <rect x="46.945" y="21.7575" width="279" height="277.2"/>
  </clipPath>
 </defs>
</svg>
